<?xml version="1.0" encoding="UTF-8" standalone="no"?>
<svg
   xmlns:dc="http://purl.org/dc/elements/1.1/"
   xmlns:cc="http://creativecommons.org/ns#"
   xmlns:rdf="http://www.w3.org/1999/02/22-rdf-syntax-ns#"
   xmlns:svg="http://www.w3.org/2000/svg"
   xmlns="http://www.w3.org/2000/svg"
   xmlns:sodipodi="http://sodipodi.sourceforge.net/DTD/sodipodi-0.dtd"
   xmlns:inkscape="http://www.inkscape.org/namespaces/inkscape"
   version="1.1"
   id="svg2"
   xml:space="preserve"
   width="3333.3333"
   height="2400"
   viewBox="0 0 3333.3333 2400"
   sodipodi:docname="iStock-1192189172.eps"><metadata
     id="metadata8"><rdf:RDF><cc:Work
         rdf:about=""><dc:format>image/svg+xml</dc:format><dc:type
           rdf:resource="http://purl.org/dc/dcmitype/StillImage" /></cc:Work></rdf:RDF></metadata><defs
     id="defs6"><clipPath
       clipPathUnits="userSpaceOnUse"
       id="clipPath50"><path
         d="m 12500,1740.7 c 3075,3.9 5813.9,1944.8 6836.7,4844.7 -86.6,-125.8 -176.7,-248.6 -270,-368.1 l 476.9,1286.9 c 278.8,853.69 144.9,1831.27 81.6,2787.6 l -204,639 -815.9,27.2 -448.7,326.4 -421.6,-54.4 -407.9,-244.8 -448.7,176.8 40.9,394.4 v 0 0 l -1441.4,-204 -584.7,-720.7 -476,-421.5 54.4,-883.93 666.4,-938.15 1019.7,149.53 870.3,-163.19 27.2,-516.66 326.4,-1047.1 -299.2,-326.3 421.6,-720.7 -27.2,-489.5 247.1,-392 c -1310,-1011.1 -2933.8,-1579.7 -4631.6,-1580 -553.6,0 -1093.1,59.3 -1613,171.9 l -40.5,495.6 c 701.2,134.8 868.5,245.6 1169.5,951.9 l 54.3,679.8 598.3,122.5 421.6,1155.8 -258.4,802.2 -1196.6,190.4 c -216.4,716.89 -194,817.02 -979.1,992.65 l -1115,244.72 -421.48,-407.98 -448.79,176.81 -68.01,557.5 -108.71,394.34 -217.59,108.8 -503.17,-299.18 -407.92,190.42 v 516.72 l 598.3,407.9 c 1113.14,0 1431.84,96.8 2121.27,1074.3 452.8,194.2 720.7,526.9 883.9,938.3 l 530.3,-40.9 598.3,108.8 -122.4,367.1 -136,326.3 -516.7,13.7 81.6,217.5 -367.1,136.1 -367.2,-149.6 -27.1,-340 -312.8,-203.9 -775.1,54.3 -217.51,421.6 951.81,503.1 27.2,-217.6 285.5,40.9 272,367.1 475.9,122.3 285.6,-258.3 -421.5,-204 639.1,-163.2 339.9,285.6 -217.6,476 -1060.6,258.3 -435.2,-367.2 95.3,340 -516.7,13.6 -40.9,-475.9 H 10147 l 27.2,190.4 -312.74,27.2 -244.72,312.7 -0.03,-0.2 -475.96,-190.3 407.92,-285.6 -271.94,-122.4 -1045.8,515.7 -419.13,-314.9 c -455.11,-385 -861.04,-824.6 -1208.67,-1308.8 l -508.45,-814.8 c -25.25,-50.7 -49.93,-101.8 -73.98,-153.2 l 373.28,-1146.7 -95.1,-516.7 285.48,-639.04 231.27,108.84 -217.6,475.9 -54.37,489.5 326.3,-81.6 135.99,-1264.58 1604.48,-543.87 448.8,-462.34 707.07,-271.93 -516.69,-462.38 -27.16,-693.4 c 377.33,-558 761.47,-1065.2 1210.15,-1087.9 l 13.6,-1169.4 181.2,-1277.6 c -2977.62,1023 -5117.44,3847.9 -5117.44,7172.6 0.84,18.8 1.77,37.5 2.77,56.3 0.01,0 0.02,0.1 0.03,0.1 h -0.03 c 0,-0.1 0,-0.1 0,-0.1 -177.99,-631.7 -269.46,-1284.59 -271.99,-1940.83 0,0.03 0,0.03 0,0.03 0,435.32 38.36,861.95 111.81,1276.2 10.74,60.5 22.16,120.5 34.39,180.5 10.77,52.9 22.17,105.8 34.08,158.2 14.1,62.1 28.86,123.3 44.53,184.8 13.36,52.3 27.31,104.5 41.8,156.4 39.83,142.7 84.06,284.1 132.24,423.1 984.92,2840.7 3684.44,4880.1 6860.41,4880.1 193.8,0 385.6,-7.6 575.6,-22.5 1659.4,-130.2 3162.2,-818.5 4320.5,-1877.1 1452.2,-1327.4 2363.2,-3237.2 2363.2,-5359.7 0,-401.31 -32.5,-794.67 -95.2,-1178.3 -38.2,-234.3 -87.9,-465.6 -148,-691.8 -20.1,-75.7 -41.4,-150.7 -63.8,-225.3 -56.7,-188.3 -120.8,-373.3 -192,-554.9 -315.7,-804.6 -770.7,-1539 -1335.7,-2173.8 -324.3,-364.3 -684.8,-695.9 -1075.8,-988.9 -15.2,-11.4 -30.8,-23 -46.2,-34.3 -239.5,-176.6 -490.2,-338.7 -750.9,-485.2 -30,-16.9 -59.9,-33.4 -90.2,-49.9 -174.6,-94.9 -353.3,-182.7 -536.2,-263.3 -16.4,-7.3 -32.9,-14.5 -49.3,-21.6 -565,-244 -1167,-418.3 -1795.5,-512.1 -346.3,-51.7 -700.9,-78.9 -1061.4,-79.8 -6.4,-0.1 -12.7,-0.1 -19.1,-0.1 m 5759.5,10212.8 105.8,-230.8 336.5,-249.9 461.5,125 -644.2,1449.3 c -147.1,217.9 -306,427.6 -475.8,628.2 l -899.2,749.3 v 0 l -134.6,-307.7 c -11.7,0.3 -23.2,0.5 -34.3,0.5 -341,0 -438,-150.1 -475.3,-337 l 288.4,-403.8 413.4,57.7 -9.5,-259.6 c -187.4,23 -324.8,49 -433.8,49 -196.9,0 -301.5,-84.6 -441.2,-424 l -307.7,-76.9 -28.8,-230.8 v -221.2 l -317.3,48.1 -355.8,-201.9 9.6,-480.7 c 146.1,-50.6 290.8,-85.9 432.1,-85.9 135.2,0 267.4,32.4 394.8,114.6 l 336.6,519.3 c 53.4,-10.9 106.9,-23.9 160.4,-23.9 77.9,0 155.8,27.6 233.7,129.7 l 96.2,-153.9 480.7,-288.5 -9.5,-125 -221.2,-48 96.2,-86.6 298,28.9 19.3,365.4 -451.9,375 375,-9.6 288.4,-230.8 v -355.7 l 259.6,-125 153.9,317.2 m -2259.6,1778.8 -240.4,-115.4 -57.7,-125 269.2,-365.3 -230.7,-48.2 57.7,-221.1 c 17.4,-1.2 34.5,-1.8 51.2,-1.8 177.2,0 321,66.5 458.4,146 l -240.4,336.6 -67.3,394.2 v 0 m -341.8,-375.4 c -0.8,0 -1.5,0 -2.2,0 -63.3,-0.5 -142.8,-27.7 -216,-74 -132.5,-83.6 -206.6,-204.2 -165.4,-269.3 v 0 c 17.2,-27.3 51.9,-40.5 96.2,-40.5 61.3,0 141.1,25.5 218.1,74.1 v 0 c 132.4,83.6 206.5,204.2 165.4,269.3 -16.6,26.2 -50.4,40.4 -96.1,40.4"
         id="path48" /></clipPath><radialGradient
       fx="0"
       fy="0"
       cx="0"
       cy="0"
       r="1"
       gradientUnits="userSpaceOnUse"
       gradientTransform="matrix(7259.25,0,0,7259.25,13718.4,12731.2)"
       spreadMethod="pad"
       id="radialGradient56"><stop
         style="stop-opacity:1;stop-color:#a2e5fa"
         offset="0"
         id="stop52" /><stop
         style="stop-opacity:1;stop-color:#56badb"
         offset="1"
         id="stop54" /></radialGradient><clipPath
       clipPathUnits="userSpaceOnUse"
       id="clipPath66"><path
         d="m 11479.3,3474.1 c -290.4,63 -575,142.6 -851.9,237.8 l -181.2,1277.6 -13.6,1169.4 c -448.68,22.7 -832.82,529.9 -1210.15,1087.9 l 27.16,693.4 516.69,462.38 -707.07,271.93 -448.8,462.34 -1604.48,543.87 -135.99,1264.58 -326.3,81.6 54.37,-489.5 217.6,-475.9 -231.27,-108.84 -285.48,639.04 95.1,516.7 -373.28,1146.7 c 24.05,51.4 48.73,102.5 73.98,153.2 l 508.45,814.8 c 347.63,484.2 753.56,923.8 1208.67,1308.8 l 419.13,314.9 1045.8,-515.7 271.94,122.4 -407.92,285.6 475.96,190.3 0.03,0.2 244.72,-312.7 312.74,-27.2 -27.2,-190.4 h 462.3 l 40.9,475.9 516.7,-13.6 -95.3,-340 435.2,367.2 1060.6,-258.3 217.6,-476 -339.9,-285.6 -639.1,163.2 421.5,204 -285.6,258.3 -475.9,-122.3 -272,-367.1 -285.5,-40.9 -27.2,217.6 -951.81,-503.1 217.51,-421.6 775.1,-54.3 312.8,203.9 27.1,340 367.2,149.6 367.1,-136.1 -81.6,-217.5 516.7,-13.7 136,-326.3 122.4,-367.1 -598.3,-108.8 -530.3,40.9 c -163.2,-411.4 -431.1,-744.1 -883.9,-938.3 C 9987.87,10851.8 9669.17,10755 8556.03,10755 l -598.3,-407.9 v -516.72 l 407.92,-190.42 503.17,299.18 217.59,-108.8 108.71,-394.34 68.01,-557.5 448.79,-176.81 421.48,407.98 1115,-244.72 c 785.1,-175.63 762.7,-275.76 979.1,-992.65 l 1196.6,-190.4 258.4,-802.2 -421.6,-1155.8 -598.3,-122.5 -54.3,-679.8 c -301,-706.3 -468.3,-817.1 -1169.5,-951.9 l 40.5,-495.6 m 6244.6,1408.1 -247.1,392 27.2,489.5 -421.6,720.7 299.2,326.3 -326.4,1047.1 -27.2,516.66 -870.3,163.19 -1019.7,-149.53 -666.4,938.15 -54.4,883.93 476,421.5 584.7,720.7 1441.4,204 -40.9,-394.4 448.7,-176.8 407.9,244.8 421.6,54.4 448.7,-326.4 815.9,-27.2 204,-639 c 63.3,-956.33 197.2,-1933.91 -81.6,-2787.6 L 19066.7,6217.3 C 18673,5713.2 18221,5265.8 17723.9,4882.2 m 977.9,6590.6 -336.5,249.9 -105.8,230.8 -153.9,-317.2 -259.6,125 v 355.7 l -288.4,230.8 -375,9.6 451.9,-375 -19.3,-365.4 -298,-28.9 -96.2,86.6 221.2,48 9.5,125 -480.7,288.5 -96.2,153.9 c -77.9,-102.1 -155.8,-129.7 -233.7,-129.7 -53.5,0 -107,13 -160.4,23.9 l -336.6,-519.3 c -127.4,-82.2 -259.6,-114.6 -394.8,-114.6 -141.3,0 -286,35.3 -432.1,85.9 l -9.6,480.7 355.8,201.9 317.3,-48.1 v 221.2 l 28.8,230.8 307.7,76.9 c 139.7,339.4 244.3,424 441.2,424 109,0 246.4,-26 433.8,-49 l 9.5,259.6 -413.4,-57.7 -288.4,403.8 c 37.3,186.9 134.3,337 475.3,337 11.1,0 22.6,-0.2 34.3,-0.5 l 134.6,307.7 v 0 l 899.2,-749.3 c 169.8,-200.6 328.7,-410.3 475.8,-628.2 l 644.2,-1449.3 -461.5,-125 m -1782.5,83.6 v 0 0 m -1070.1,1299.1 c -16.7,0 -33.8,0.6 -51.2,1.8 l -57.7,221.1 230.7,48.2 -269.2,365.3 57.7,125 240.4,115.4 v 0 l 67.3,-394.2 240.4,-336.6 c -137.4,-79.5 -281.2,-146 -458.4,-146 m -478.5,117.6 c -44.3,0 -79,13.2 -96.2,40.5 v 0 c -41.2,65.1 32.9,185.7 165.4,269.3 73.2,46.3 152.7,73.5 216,74 0.7,0 1.4,0 2.2,0 45.7,0 79.5,-14.2 96.1,-40.4 41.1,-65.1 -33,-185.7 -165.4,-269.3 v 0 c -77,-48.6 -156.8,-74.1 -218.1,-74.1"
         id="path64" /></clipPath><radialGradient
       fx="0"
       fy="0"
       cx="0"
       cy="0"
       r="1"
       gradientUnits="userSpaceOnUse"
       gradientTransform="matrix(6850.09,0,0,6221.01,13805.7,12531.4)"
       spreadMethod="pad"
       id="radialGradient72"><stop
         style="stop-opacity:1;stop-color:#4acd90"
         offset="0"
         id="stop68" /><stop
         style="stop-opacity:1;stop-color:#41a476"
         offset="1"
         id="stop70" /></radialGradient><clipPath
       clipPathUnits="userSpaceOnUse"
       id="clipPath84"><path
         d="m 12500,1740.7 c -6.4,0 -12.7,0 -19.1,0.1 -4000.38,10.3 -7240.16,3256.4 -7240.16,7259.2 2.53,656.21 94,1309.1 271.99,1940.8 -1,-18.8 -1.93,-37.5 -2.77,-56.3 0,-3324.7 2139.82,-6149.6 5117.44,-7172.6 l 77.2,-544.5 775,-679.8 421.6,122.3 -312.8,244.8 -95.1,448.7 -14,170.7 c 519.9,-112.6 1059.4,-171.9 1613,-171.9 1697.8,0.3 3321.6,568.9 4631.6,1580 l 309.3,-490.6 585.4,717.2 c 32.1,50.9 63.5,102.2 94.3,154 l 353.8,954.5 c 93.3,119.5 183.4,242.3 270,368.1 C 18313.9,3685.5 15575,1744.6 12500,1740.7 v 0 m -6987.27,9200.1 c 0,0 0,0 0,0.1 h 0.03 c -0.01,0 -0.02,-0.1 -0.03,-0.1"
         id="path82" /></clipPath><radialGradient
       fx="0"
       fy="0"
       cx="0"
       cy="0"
       r="1"
       gradientUnits="userSpaceOnUse"
       gradientTransform="matrix(7259.25,0,0,7259.25,13718.4,12731.2)"
       spreadMethod="pad"
       id="radialGradient90"><stop
         style="stop-opacity:1;stop-color:#6bbbd4"
         offset="0"
         id="stop86" /><stop
         style="stop-opacity:1;stop-color:#43a4c4"
         offset="1"
         id="stop88" /></radialGradient><clipPath
       clipPathUnits="userSpaceOnUse"
       id="clipPath100"><path
         d="m 11479.6,2487.6 -775,679.8 -77.2,544.5 c 276.9,-95.2 561.5,-174.8 851.9,-237.8 l 14,-170.7 95.1,-448.7 312.8,-244.8 -421.6,-122.3 m 6553.6,1904 -309.3,490.6 c 497.1,383.6 949.1,831 1342.8,1335.1 l -353.8,-954.5 c -30.8,-51.8 -62.2,-103.1 -94.3,-154 l -585.4,-717.2"
         id="path98" /></clipPath><radialGradient
       fx="0"
       fy="0"
       cx="0"
       cy="0"
       r="1"
       gradientUnits="userSpaceOnUse"
       gradientTransform="matrix(6850.09,0,0,6221.01,13805.7,12531.4)"
       spreadMethod="pad"
       id="radialGradient106"><stop
         style="stop-opacity:1;stop-color:#3dae9c"
         offset="0"
         id="stop102" /><stop
         style="stop-opacity:1;stop-color:#38998f"
         offset="1"
         id="stop104" /></radialGradient><clipPath
       clipPathUnits="userSpaceOnUse"
       id="clipPath138"><path
         d="m 1972.35,14820.7 h 8033.25 c 172.5,0 312.2,-157.8 312.2,-352.4 v -2219.8 c 0,-194.6 -139.7,-352.3 -312.2,-352.3 H 1972.35 c -172.42,0 -312.19,157.7 -312.19,352.3 v 2219.8 c 0,194.6 139.77,352.4 312.19,352.4 z"
         id="path136" /></clipPath><linearGradient
       x1="0"
       y1="0"
       x2="1"
       y2="0"
       gradientUnits="userSpaceOnUse"
       gradientTransform="matrix(1970.63,0,0,2224.26,3516.8,13358.4)"
       spreadMethod="pad"
       id="linearGradient144"><stop
         style="stop-opacity:1;stop-color:#6cd7ff"
         offset="0"
         id="stop140" /><stop
         style="stop-opacity:1;stop-color:#ecf7ff"
         offset="1"
         id="stop142" /></linearGradient><clipPath
       clipPathUnits="userSpaceOnUse"
       id="clipPath222"><path
         d="m 15568.7,12851.5 h 7730.8 c 220.9,0 400,-179.1 400,-400.1 v -2199.3 c 0,-221 -179.1,-400.07 -400,-400.07 h -7730.8 c -221,0 -400.1,179.07 -400.1,400.07 v 2199.3 c 0,221 179.1,400.1 400.1,400.1 z"
         id="path220" /></clipPath><linearGradient
       x1="0"
       y1="0"
       x2="1"
       y2="0"
       gradientUnits="userSpaceOnUse"
       gradientTransform="matrix(-3208.49,3e-7,-3e-7,-3693.8,22319.9,11351.8)"
       spreadMethod="pad"
       id="linearGradient228"><stop
         style="stop-opacity:1;stop-color:#ffb7fc"
         offset="0"
         id="stop224" /><stop
         style="stop-opacity:1;stop-color:#ecf7ff"
         offset="1"
         id="stop226" /></linearGradient><clipPath
       clipPathUnits="userSpaceOnUse"
       id="clipPath324"><path
         d="M 11687.1,7665 H 3923.5 c -257.99,0 -467.12,-209.1 -467.12,-467.1 V 5192.1 c 0,-258 209.13,-467.1 467.12,-467.1 h 7763.6 c 257.9,0 467.1,209.1 467.1,467.1 v 2005.8 c 0,258 -209.2,467.1 -467.1,467.1 z"
         id="path322" /></clipPath><linearGradient
       x1="0"
       y1="0"
       x2="1"
       y2="0"
       gradientUnits="userSpaceOnUse"
       gradientTransform="matrix(5109.76,5e-7,5e-7,-5718.43,3986.95,6195)"
       spreadMethod="pad"
       id="linearGradient330"><stop
         style="stop-opacity:1;stop-color:#ffe172"
         offset="0"
         id="stop326" /><stop
         style="stop-opacity:1;stop-color:#ecf7ff"
         offset="1"
         id="stop328" /></linearGradient><clipPath
       clipPathUnits="userSpaceOnUse"
       id="clipPath404"><path
         d="m 18044.6,7069 h 3623.6 c 324.5,0 587.5,-245.3 587.5,-547.9 V 4676.9 c 0,-302.6 -263,-547.9 -587.5,-547.9 h -3623.6 c -324.5,0 -587.5,245.3 -587.5,547.9 v 1844.2 c 0,302.6 263,547.9 587.5,547.9 z"
         id="path402" /></clipPath><linearGradient
       x1="0"
       y1="0"
       x2="1"
       y2="0"
       gradientUnits="userSpaceOnUse"
       gradientTransform="matrix(-2819.07,5e-7,-3e-7,-5718.43,21963,5599)"
       spreadMethod="pad"
       id="linearGradient410"><stop
         style="stop-opacity:1;stop-color:#94abfc"
         offset="0"
         id="stop406" /><stop
         style="stop-opacity:1;stop-color:#ecf7ff"
         offset="1"
         id="stop408" /></linearGradient></defs><sodipodi:namedview
     pagecolor="#ffffff"
     bordercolor="#666666"
     borderopacity="1"
     objecttolerance="10"
     gridtolerance="10"
     guidetolerance="10"
     inkscape:pageopacity="0"
     inkscape:pageshadow="2"
     inkscape:window-width="640"
     inkscape:window-height="480"
     id="namedview4" /><g
     id="g10"
     inkscape:groupmode="layer"
     inkscape:label="ink_ext_XXXXXX"
     transform="matrix(1.3333333,0,0,-1.3333333,0,2400)"><g
       id="g12"
       transform="scale(0.1)"><path
         d="M 0,0 H 25000 V 18000 H 0 Z"
         style="fill:#ffe8de;fill-opacity:1;fill-rule:nonzero;stroke:none"
         id="path14" /><path
         d="m 16304.1,16757.8 c 63.2,0 114.3,-53.4 114.3,-119.2 v -0.1 c 0,-65.8 -51.1,-119.2 -114.3,-119.2 -63.1,0 -114.2,53.4 -114.3,119.2 v 0 c 0,65.9 51.2,119.3 114.3,119.3 z m -356.8,0 c 63.1,0 114.3,-53.4 114.3,-119.2 v -0.1 c 0,-65.8 -51.2,-119.2 -114.3,-119.2 -63.1,0 -114.3,53.4 -114.3,119.2 0,65.9 51.2,119.3 114.3,119.3 z m 416.7,635.3 c -574.3,0 -1039.9,-337.8 -1039.9,-754.6 v 0 c 0.6,-398.5 428.2,-727.9 976.3,-752.3 l 248.1,-332.7 -4.6,342 c 77.1,10.1 152.3,26.4 224.3,48.7 -13.1,10.1 -26,20.4 -38.3,31.1 -149.3,128.9 -243.2,301.2 -243.2,489.3 0,213.7 120,404.1 302.5,536.5 93.6,67.9 204,121.7 325.9,158.1 -195.9,149.1 -467.2,233.6 -751.1,233.9 v 0"
         style="fill:#748de5;fill-opacity:1;fill-rule:nonzero;stroke:none"
         id="path16" /><path
         d="m 17807.5,16571 c 56.3,-0.1 102,-47.6 102,-106.4 0,-58.7 -45.7,-106.3 -102,-106.3 -56.3,0 -101.9,47.6 -101.9,106.3 0,58.8 45.6,106.4 101.9,106.4 z m -318.3,0 c 56.3,-0.1 101.9,-47.6 101.9,-106.4 0,-58.7 -45.6,-106.3 -101.9,-106.3 -56.3,0 -101.9,47.6 -102,106.3 v 0 c 0,58.8 45.7,106.4 102,106.4 z m -318.3,0 c 56.3,-0.1 101.9,-47.6 101.9,-106.4 0,-58.7 -45.6,-106.3 -101.9,-106.3 -56.3,0 -102,47.6 -102,106.3 v 0 c 0,58.8 45.7,106.4 102,106.4 z m 318.3,566.7 c -512.4,0.1 -927.7,-301.3 -927.7,-673.1 v 0 c 0.1,-326.8 323.6,-606.3 767.1,-662.8 l -4,-305.1 221.3,296.8 c 489,21.7 870.4,315.6 870.9,671.1 0,371.8 -415.3,673.1 -927.6,673.1 v 0 0"
         style="fill:#748de5;fill-opacity:1;fill-rule:nonzero;stroke:none"
         id="path18" /><path
         d="m 3163.84,15434.8 c 216.77,0 413.77,-331.5 441.7,-743.2 l 1.03,-14 c 57.11,117.8 139.12,183.4 229.7,183.7 199.1,0 385.15,-309.2 415.53,-690.6 v 0 c 0.57,-9.3 1.05,-18.7 1.42,-27.9 675.95,-141.1 689.04,-405.2 689.04,-405.2 H 1526.49 c 0,0 19.02,225.2 543.48,370.8 33.88,331.6 226.14,576.9 452.54,577.3 85.24,-0.3 168.74,-35.8 241.1,-102.6 l -7.35,108.5 c -27.93,411.7 124.08,743.2 340.83,743.2 h 66.81 -0.06"
         style="fill:#ffffff;fill-opacity:1;fill-rule:nonzero;stroke:none"
         id="path20" /><path
         d="m 11405.9,16416 c -4118.67,0 -7457.51,-3114.6 -7457.51,-6956.65 0.27,-391.1 35.91,-781.48 106.51,-1167 C 3462.21,8171.83 2919.77,7390.3 2516.57,4777 2350.45,3700.4 2274.53,2687.3 2309.26,1740.8 H 23674.7 c 3.7,1526.5 -170.4,3021.6 -542.4,4057.2 -353.3,983.6 -648.6,1647.9 -903,2077.1 30.1,231.17 46,463.9 47.6,696.9 -2.9,3093.9 -2492.8,5665.4 -5717.3,5904.4 -1385.9,1241.8 -3232.1,1936.6 -5153.7,1939.6 v 0"
         style="fill:#ffd0bb;fill-opacity:1;fill-rule:nonzero;stroke:none"
         id="path22" /><path
         d="m 3030.39,9663.23 c 7.57,-0.23 15.15,-0.18 22.73,0.13 64.63,2.69 126.95,24.84 178.78,63.55 84.93,63.42 133.08,164.67 128.68,270.56 -7.35,177.13 -156.94,314.83 -334.1,307.43 -177.17,-7.3 -314.83,-156.9 -307.47,-334.06 v -0.01 c 6.99,-168.36 142.95,-302.67 311.38,-307.6 z m 16.14,-395.6 c -229.86,-2.04 -456.46,106.55 -596.78,310.44 -224.52,326.23 -142.26,771.63 183.96,996.13 326.24,224.5 771.62,142.3 996.14,-184 224.51,-326.2 142.26,-771.57 -183.97,-996.09 -122.33,-84.2 -261.42,-125.25 -399.34,-126.48 z m 1.31,-117.89 c 160.79,1.35 322.86,49.01 465.1,146.91 379.33,261.06 475.41,781.35 214.36,1160.65 -261.06,379.3 -781.33,475.4 -1160.66,214.4 -379.32,-261.1 -475.41,-781.38 -214.35,-1160.7 163.15,-237.07 427.57,-363.51 695.55,-361.26 z m -101.43,-665.13 -42.66,455.23 c -35.06,4.61 -70.22,11 -105.41,19.29 -177.87,41.91 -334.48,126.67 -461.5,240.73 l -372.86,-264.54 -269.56,379.96 373.15,264.77 c -79.18,190.05 -103.42,404.81 -58.02,620.55 l -415.96,190.8 194.24,423.4 415.71,-190.7 c 129.65,169.2 307.61,294.9 508.54,360.9 l -42.65,455.3 463.8,43.4 42.68,-455.2 c 35.06,-4.6 70.22,-11.1 105.38,-19.3 177.87,-41.9 334.44,-126.7 461.45,-240.7 l 372.87,264.5 269.56,-380 -373.13,-264.7 c 79.21,-190.1 103.44,-404.87 58.03,-620.59 l 415.94,-190.82 -194.26,-423.42 -415.67,190.71 C 3746.44,9175 3568.48,9049.26 3367.57,8983.25 l 42.65,-455.15 -463.81,-43.49"
         style="fill:#748de5;fill-opacity:1;fill-rule:nonzero;stroke:none"
         id="path24" /><path
         d="m 5049.72,10617.1 c 4.35,-0.1 8.68,-0.1 13.02,0.1 37.03,1.5 72.72,14.2 102.42,36.4 48.64,36.3 76.22,94.3 73.7,155 -4.22,101.4 -89.89,180.3 -191.37,176.1 -101.48,-4.2 -180.33,-89.9 -176.11,-191.4 4,-96.4 81.87,-173.4 178.34,-176.2 v 0 m 9.25,-226.6 c -131.66,-1.2 -261.45,61 -341.84,177.8 -128.6,186.9 -81.47,442 105.39,570.6 186.86,128.6 441.98,81.5 570.58,-105.4 128.6,-186.8 81.49,-442 -105.38,-570.6 -70.07,-48.2 -149.76,-71.7 -228.76,-72.4 h 0.01 m 0.76,-67.5 c 92.09,0.7 184.93,28 266.41,84.1 217.28,149.6 272.32,447.6 122.78,664.8 -149.53,217.3 -447.55,272.3 -664.82,122.8 -217.27,-149.5 -272.32,-447.5 -122.79,-664.8 93.46,-135.8 244.91,-208.2 398.42,-206.9 m -58.1,-381.02 -24.43,260.72 c -20.1,2.7 -40.24,6.3 -60.39,11.1 -101.89,24 -191.58,72.5 -264.36,137.9 l -213.55,-151.5 -154.41,217.6 213.74,151.6 c -45.35,108.9 -59.23,231.9 -33.22,355.5 l -238.27,109.3 111.26,242.5 238.13,-109.2 c 74.27,96.9 176.2,168.9 291.3,206.7 l -24.45,260.8 265.67,24.9 24.44,-260.8 c 20.09,-2.6 40.22,-6.3 60.36,-11.1 101.89,-24 191.58,-72.5 264.35,-137.8 l 213.55,151.5 154.41,-217.7 -213.73,-151.6 c 45.37,-108.9 59.26,-231.9 33.25,-355.5 l 238.23,-109.3 -111.28,-242.5 -238.08,109.3 c -74.26,-97 -176.19,-169 -291.28,-206.8 l 24.44,-260.71 -265.68,-24.91"
         style="fill:#748de5;fill-opacity:1;fill-rule:nonzero;stroke:none"
         id="path26" /><path
         d="m 20977.4,3232.1 c 50.9,0.2 103.4,-2.9 157.5,-9.6 l 87.9,-369 92.4,334.9 c 5.8,-1.4 11.6,-2.9 17.4,-4.4 803.8,-212 1270.8,-723.3 1310.8,-1443.2 H 19811 c 27.5,496.2 188.2,944 475.7,1216.6 l 213.5,-140.4 -111.2,225.9 c 163,119.3 359.4,188.2 588.4,189.2 v 0"
         style="fill:#7670d5;fill-opacity:1;fill-rule:nonzero;stroke:none"
         id="path28" /><path
         d="m 22018.7,2309.3 -563.5,-568.5 h -72.9 z m -1816,91.9 933.7,-660.4 h -88.2 z m 696.4,355.8 360.3,-1016.2 h -55 z m 709.8,164.1 -258.9,-1180.3 h -81.4 l 340.3,1180.3 v 0"
         style="fill:#a09bf2;fill-opacity:1;fill-rule:nonzero;stroke:none"
         id="path30" /><path
         d="m 4837.22,3931.7 c 74.06,0.4 150.49,-4.3 229.22,-14.1 l 156.82,-507.9 105.64,457.9 c 8.41,-2.1 16.8,-4.3 25.25,-6.5 C 6524.09,3549.7 7203.81,2798.5 7261.91,1740.8 H 3139.48 c 40.05,729 274.03,1386.9 692.38,1787.4 l 281.93,-147.1 -132.95,272.8 c 237.16,175.2 523.05,276.3 856.39,277.8 h -0.01"
         style="fill:#fb5b3f;fill-opacity:1;fill-rule:nonzero;stroke:none"
         id="path32" /><path
         d="m 6352.78,2576 -820.12,-835.2 h -106.12 z m -2643.14,135.1 1358.89,-970.3 h -128.34 z m 1013.55,522.7 524.44,-1493 h -80.14 z m 1033.07,241 -376.84,-1734 h -118.46 l 495.3,1734"
         style="fill:#dc523a;fill-opacity:1;fill-rule:nonzero;stroke:none"
         id="path34" /><path
         d="m 20501.1,16942.4 c -298,0 -568.8,-399.4 -607.2,-895.5 l -1.3,-16.8 c -78.5,142 -191.2,221 -315.8,221.3 -273.7,0 -529.4,-372.5 -571.2,-832 v -0.1 c -0.8,-11.2 -1.5,-22.4 -2,-33.6 -929.2,-170 -947.2,-488.2 -947.2,-488.2 h 4695.7 c 0,0 -26.1,271.4 -747.1,446.8 -46.6,399.5 -310.9,695 -622.1,695.5 -117.2,-0.4 -232,-43.1 -331.5,-123.6 l 10.2,130.7 c 38.3,496.1 -170.6,895.5 -468.6,895.5 h -91.9 v 0"
         style="fill:#ffffff;fill-opacity:1;fill-rule:nonzero;stroke:none"
         id="path36" /><path
         d="m 21208.4,8987.38 c 84.1,-38.24 106.5,-166.88 -13.3,-440.58 -87.2,-199.5 -271.3,-408.79 -380.4,-522.91 16.8,6.33 35.3,13.12 56.3,20.29 15,5.68 30,11.24 45.2,16.68 79.3,112.35 256.9,344.03 446.2,457.02 255.1,152.23 385.4,127.54 434,30.12 48.5,-97.4 -3,-230.6 -258.2,-382.85 -36.6,-21.87 -76.5,-40.84 -117.9,-57.45 221.7,-46.82 289.7,-150.9 273.3,-262.1 -17.5,-119.5 -125.7,-201.9 -389.4,-161.2 -193.5,29.9 -407.1,181.9 -507.3,260.9 -131.9,-69.1 -252.3,-147.3 -365.4,-234.4 92.5,40.7 196.6,76.8 289.9,85.5 238.2,22.3 319,-46.9 314.1,-142.1 -4.9,-95.1 -93.8,-180.2 -332,-202.5 -170.9,-16 -367.9,53.2 -466.7,93.8 -105.9,-98.6 -207.2,-207.3 -307.6,-326.7 162.3,78.7 364.3,158.9 540.9,175.5 366.3,34.3 490.6,-72.1 483,-218.4 -7.6,-146.3 -144.2,-277.1 -510.5,-311.4 -246.6,-23.1 -530.5,69.7 -690,132.9 -100.4,-131.9 -203,-276.5 -310.6,-432.4 168.5,85.1 391.7,179.1 584.7,197.2 366.2,34.3 490.5,-72.1 483,-218.4 -7.6,-146.3 -144.3,-277.1 -510.5,-311.4 -248.2,-23.3 -534.2,70.9 -693.1,134 -6.5,-9.7 -13.1,-19.4 -19.6,-28.9 l -200,92.5 c -0.9,1.2 -1.8,2.4 -2.6,3.6 12.4,16.3 24.2,31.5 36.4,47.6 -110.8,109.6 -266.8,289.7 -334.3,491.5 -110.4,329.7 -57,511.8 57.2,591.6 114.3,79.8 246.2,27 356.6,-302.6 58,-173.4 66.7,-410.3 62.1,-596.5 110.3,141.6 216.5,273.7 321.1,395.8 -111.2,108.8 -272.1,292.4 -341,498.2 -110.4,329.6 -57,511.75 57.2,591.54 114.3,79.79 246.2,27.04 356.6,-302.64 62.1,-185.6 67.9,-444.7 61.1,-635.6 148.9,163 297.2,305.7 452.8,429.4 -58.5,119.6 -149.3,337.2 -152.8,544.11 -5.3,306.11 77.8,440.71 182.6,472.16 104.8,31.48 191.6,-52.09 196.8,-358.22 3.1,-182.88 -60.8,-414.45 -112.9,-571.75 139.8,100.2 286,185.3 444.4,256.5 -0.2,115.64 9.5,429.57 112.2,664.19 127.7,291.91 252.7,373.06 350.8,344.85 6.1,-1.83 12,-3.93 17.6,-6.49 v 0.03"
         style="fill:#88cca1;fill-opacity:1;fill-rule:nonzero;stroke:none"
         id="path38" /><path
         d="m 16885.1,4845.6 c -101.1,0.5 -205.4,-6.1 -312.9,-19.9 L 16411.4,4457 16214,4754.7 c -11.5,-3 -23,-6 -34.5,-9.2 -1596.9,-441.3 -2524.8,-1505.8 -2604.1,-3004.7 h 5627.1 c -54.6,1033.1 -374,1965.5 -945.1,2532.9 l -424.1,-292.4 220.8,470.5 c -323.7,248.3 -714,391.7 -1169,393.8 v 0"
         style="fill:#f8a24f;fill-opacity:1;fill-rule:nonzero;stroke:none"
         id="path40" /><path
         d="m 14816.4,2924.4 1119.4,-1183.6 h 144.9 l -1264.3,1183.6 m 3607.9,191.4 -1854.9,-1375 h 175.2 l 1679.7,1375 m -1383.5,740.8 -715.9,-2115.9 h 109.4 l 606.5,2115.9 m -1410.2,341.5 514.4,-2457.4 h 161.7 l -676.1,2457.4"
         style="fill:#eb8e36;fill-opacity:1;fill-rule:nonzero;stroke:none"
         id="path42" /><g
         id="g44"><g
           id="g46"
           clip-path="url(#clipPath50)"><path
             d="m 12500,1740.7 c 3075,3.9 5813.9,1944.8 6836.7,4844.7 -86.6,-125.8 -176.7,-248.6 -270,-368.1 l 476.9,1286.9 c 278.8,853.69 144.9,1831.27 81.6,2787.6 l -204,639 -815.9,27.2 -448.7,326.4 -421.6,-54.4 -407.9,-244.8 -448.7,176.8 40.9,394.4 v 0 0 l -1441.4,-204 -584.7,-720.7 -476,-421.5 54.4,-883.93 666.4,-938.15 1019.7,149.53 870.3,-163.19 27.2,-516.66 326.4,-1047.1 -299.2,-326.3 421.6,-720.7 -27.2,-489.5 247.1,-392 c -1310,-1011.1 -2933.8,-1579.7 -4631.6,-1580 -553.6,0 -1093.1,59.3 -1613,171.9 l -40.5,495.6 c 701.2,134.8 868.5,245.6 1169.5,951.9 l 54.3,679.8 598.3,122.5 421.6,1155.8 -258.4,802.2 -1196.6,190.4 c -216.4,716.89 -194,817.02 -979.1,992.65 l -1115,244.72 -421.48,-407.98 -448.79,176.81 -68.01,557.5 -108.71,394.34 -217.59,108.8 -503.17,-299.18 -407.92,190.42 v 516.72 l 598.3,407.9 c 1113.14,0 1431.84,96.8 2121.27,1074.3 452.8,194.2 720.7,526.9 883.9,938.3 l 530.3,-40.9 598.3,108.8 -122.4,367.1 -136,326.3 -516.7,13.7 81.6,217.5 -367.1,136.1 -367.2,-149.6 -27.1,-340 -312.8,-203.9 -775.1,54.3 -217.51,421.6 951.81,503.1 27.2,-217.6 285.5,40.9 272,367.1 475.9,122.3 285.6,-258.3 -421.5,-204 639.1,-163.2 339.9,285.6 -217.6,476 -1060.6,258.3 -435.2,-367.2 95.3,340 -516.7,13.6 -40.9,-475.9 H 10147 l 27.2,190.4 -312.74,27.2 -244.72,312.7 -0.03,-0.2 -475.96,-190.3 407.92,-285.6 -271.94,-122.4 -1045.8,515.7 -419.13,-314.9 c -455.11,-385 -861.04,-824.6 -1208.67,-1308.8 l -508.45,-814.8 c -25.25,-50.7 -49.93,-101.8 -73.98,-153.2 l 373.28,-1146.7 -95.1,-516.7 285.48,-639.04 231.27,108.84 -217.6,475.9 -54.37,489.5 326.3,-81.6 135.99,-1264.58 1604.48,-543.87 448.8,-462.34 707.07,-271.93 -516.69,-462.38 -27.16,-693.4 c 377.33,-558 761.47,-1065.2 1210.15,-1087.9 l 13.6,-1169.4 181.2,-1277.6 c -2977.62,1023 -5117.44,3847.9 -5117.44,7172.6 0.84,18.8 1.77,37.5 2.77,56.3 0.01,0 0.02,0.1 0.03,0.1 h -0.03 c 0,-0.1 0,-0.1 0,-0.1 -177.99,-631.7 -269.46,-1284.59 -271.99,-1940.83 0,0.03 0,0.03 0,0.03 0,435.32 38.36,861.95 111.81,1276.2 10.74,60.5 22.16,120.5 34.39,180.5 10.77,52.9 22.17,105.8 34.08,158.2 14.1,62.1 28.86,123.3 44.53,184.8 13.36,52.3 27.31,104.5 41.8,156.4 39.83,142.7 84.06,284.1 132.24,423.1 984.92,2840.7 3684.44,4880.1 6860.41,4880.1 193.8,0 385.6,-7.6 575.6,-22.5 1659.4,-130.2 3162.2,-818.5 4320.5,-1877.1 1452.2,-1327.4 2363.2,-3237.2 2363.2,-5359.7 0,-401.31 -32.5,-794.67 -95.2,-1178.3 -38.2,-234.3 -87.9,-465.6 -148,-691.8 -20.1,-75.7 -41.4,-150.7 -63.8,-225.3 -56.7,-188.3 -120.8,-373.3 -192,-554.9 -315.7,-804.6 -770.7,-1539 -1335.7,-2173.8 -324.3,-364.3 -684.8,-695.9 -1075.8,-988.9 -15.2,-11.4 -30.8,-23 -46.2,-34.3 -239.5,-176.6 -490.2,-338.7 -750.9,-485.2 -30,-16.9 -59.9,-33.4 -90.2,-49.9 -174.6,-94.9 -353.3,-182.7 -536.2,-263.3 -16.4,-7.3 -32.9,-14.5 -49.3,-21.6 -565,-244 -1167,-418.3 -1795.5,-512.1 -346.3,-51.7 -700.9,-78.9 -1061.4,-79.8 -6.4,-0.1 -12.7,-0.1 -19.1,-0.1 m 5759.5,10212.8 105.8,-230.8 336.5,-249.9 461.5,125 -644.2,1449.3 c -147.1,217.9 -306,427.6 -475.8,628.2 l -899.2,749.3 v 0 l -134.6,-307.7 c -11.7,0.3 -23.2,0.5 -34.3,0.5 -341,0 -438,-150.1 -475.3,-337 l 288.4,-403.8 413.4,57.7 -9.5,-259.6 c -187.4,23 -324.8,49 -433.8,49 -196.9,0 -301.5,-84.6 -441.2,-424 l -307.7,-76.9 -28.8,-230.8 v -221.2 l -317.3,48.1 -355.8,-201.9 9.6,-480.7 c 146.1,-50.6 290.8,-85.9 432.1,-85.9 135.2,0 267.4,32.4 394.8,114.6 l 336.6,519.3 c 53.4,-10.9 106.9,-23.9 160.4,-23.9 77.9,0 155.8,27.6 233.7,129.7 l 96.2,-153.9 480.7,-288.5 -9.5,-125 -221.2,-48 96.2,-86.6 298,28.9 19.3,365.4 -451.9,375 375,-9.6 288.4,-230.8 v -355.7 l 259.6,-125 153.9,317.2 m -2259.6,1778.8 -240.4,-115.4 -57.7,-125 269.2,-365.3 -230.7,-48.2 57.7,-221.1 c 17.4,-1.2 34.5,-1.8 51.2,-1.8 177.2,0 321,66.5 458.4,146 l -240.4,336.6 -67.3,394.2 v 0 m -341.8,-375.4 c -0.8,0 -1.5,0 -2.2,0 -63.3,-0.5 -142.8,-27.7 -216,-74 -132.5,-83.6 -206.6,-204.2 -165.4,-269.3 v 0 c 17.2,-27.3 51.9,-40.5 96.2,-40.5 61.3,0 141.1,25.5 218.1,74.1 v 0 c 132.4,83.6 206.5,204.2 165.4,269.3 -16.6,26.2 -50.4,40.4 -96.1,40.4"
             style="fill:url(#radialGradient56);fill-opacity:1;fill-rule:nonzero;stroke:none"
             id="path58" /></g></g><g
         id="g60"><g
           id="g62"
           clip-path="url(#clipPath66)"><path
             d="m 11479.3,3474.1 c -290.4,63 -575,142.6 -851.9,237.8 l -181.2,1277.6 -13.6,1169.4 c -448.68,22.7 -832.82,529.9 -1210.15,1087.9 l 27.16,693.4 516.69,462.38 -707.07,271.93 -448.8,462.34 -1604.48,543.87 -135.99,1264.58 -326.3,81.6 54.37,-489.5 217.6,-475.9 -231.27,-108.84 -285.48,639.04 95.1,516.7 -373.28,1146.7 c 24.05,51.4 48.73,102.5 73.98,153.2 l 508.45,814.8 c 347.63,484.2 753.56,923.8 1208.67,1308.8 l 419.13,314.9 1045.8,-515.7 271.94,122.4 -407.92,285.6 475.96,190.3 0.03,0.2 244.72,-312.7 312.74,-27.2 -27.2,-190.4 h 462.3 l 40.9,475.9 516.7,-13.6 -95.3,-340 435.2,367.2 1060.6,-258.3 217.6,-476 -339.9,-285.6 -639.1,163.2 421.5,204 -285.6,258.3 -475.9,-122.3 -272,-367.1 -285.5,-40.9 -27.2,217.6 -951.81,-503.1 217.51,-421.6 775.1,-54.3 312.8,203.9 27.1,340 367.2,149.6 367.1,-136.1 -81.6,-217.5 516.7,-13.7 136,-326.3 122.4,-367.1 -598.3,-108.8 -530.3,40.9 c -163.2,-411.4 -431.1,-744.1 -883.9,-938.3 C 9987.87,10851.8 9669.17,10755 8556.03,10755 l -598.3,-407.9 v -516.72 l 407.92,-190.42 503.17,299.18 217.59,-108.8 108.71,-394.34 68.01,-557.5 448.79,-176.81 421.48,407.98 1115,-244.72 c 785.1,-175.63 762.7,-275.76 979.1,-992.65 l 1196.6,-190.4 258.4,-802.2 -421.6,-1155.8 -598.3,-122.5 -54.3,-679.8 c -301,-706.3 -468.3,-817.1 -1169.5,-951.9 l 40.5,-495.6 m 6244.6,1408.1 -247.1,392 27.2,489.5 -421.6,720.7 299.2,326.3 -326.4,1047.1 -27.2,516.66 -870.3,163.19 -1019.7,-149.53 -666.4,938.15 -54.4,883.93 476,421.5 584.7,720.7 1441.4,204 -40.9,-394.4 448.7,-176.8 407.9,244.8 421.6,54.4 448.7,-326.4 815.9,-27.2 204,-639 c 63.3,-956.33 197.2,-1933.91 -81.6,-2787.6 L 19066.7,6217.3 C 18673,5713.2 18221,5265.8 17723.9,4882.2 m 977.9,6590.6 -336.5,249.9 -105.8,230.8 -153.9,-317.2 -259.6,125 v 355.7 l -288.4,230.8 -375,9.6 451.9,-375 -19.3,-365.4 -298,-28.9 -96.2,86.6 221.2,48 9.5,125 -480.7,288.5 -96.2,153.9 c -77.9,-102.1 -155.8,-129.7 -233.7,-129.7 -53.5,0 -107,13 -160.4,23.9 l -336.6,-519.3 c -127.4,-82.2 -259.6,-114.6 -394.8,-114.6 -141.3,0 -286,35.3 -432.1,85.9 l -9.6,480.7 355.8,201.9 317.3,-48.1 v 221.2 l 28.8,230.8 307.7,76.9 c 139.7,339.4 244.3,424 441.2,424 109,0 246.4,-26 433.8,-49 l 9.5,259.6 -413.4,-57.7 -288.4,403.8 c 37.3,186.9 134.3,337 475.3,337 11.1,0 22.6,-0.2 34.3,-0.5 l 134.6,307.7 v 0 l 899.2,-749.3 c 169.8,-200.6 328.7,-410.3 475.8,-628.2 l 644.2,-1449.3 -461.5,-125 m -1782.5,83.6 v 0 0 m -1070.1,1299.1 c -16.7,0 -33.8,0.6 -51.2,1.8 l -57.7,221.1 230.7,48.2 -269.2,365.3 57.7,125 240.4,115.4 v 0 l 67.3,-394.2 240.4,-336.6 c -137.4,-79.5 -281.2,-146 -458.4,-146 m -478.5,117.6 c -44.3,0 -79,13.2 -96.2,40.5 v 0 c -41.2,65.1 32.9,185.7 165.4,269.3 73.2,46.3 152.7,73.5 216,74 0.7,0 1.4,0 2.2,0 45.7,0 79.5,-14.2 96.1,-40.4 41.1,-65.1 -33,-185.7 -165.4,-269.3 v 0 c -77,-48.6 -156.8,-74.1 -218.1,-74.1"
             style="fill:url(#radialGradient72);fill-opacity:1;fill-rule:nonzero;stroke:none"
             id="path74" /></g></g><path
         d="m 12480.9,1740.8 v 0 C 8480.52,1751.1 5240.74,4997.2 5240.74,8999.97 v 0 c 0,-4002.77 3239.78,-7248.87 7240.16,-7259.17"
         style="fill:#9cb0b3;fill-opacity:1;fill-rule:nonzero;stroke:none"
         id="path76" /><g
         id="g78"><g
           id="g80"
           clip-path="url(#clipPath84)"><path
             d="m 12500,1740.7 c -6.4,0 -12.7,0 -19.1,0.1 -4000.38,10.3 -7240.16,3256.4 -7240.16,7259.2 2.53,656.21 94,1309.1 271.99,1940.8 -1,-18.8 -1.93,-37.5 -2.77,-56.3 0,-3324.7 2139.82,-6149.6 5117.44,-7172.6 l 77.2,-544.5 775,-679.8 421.6,122.3 -312.8,244.8 -95.1,448.7 -14,170.7 c 519.9,-112.6 1059.4,-171.9 1613,-171.9 1697.8,0.3 3321.6,568.9 4631.6,1580 l 309.3,-490.6 585.4,717.2 c 32.1,50.9 63.5,102.2 94.3,154 l 353.8,954.5 c 93.3,119.5 183.4,242.3 270,368.1 C 18313.9,3685.5 15575,1744.6 12500,1740.7 v 0 m -6987.27,9200.1 c 0,0 0,0 0,0.1 h 0.03 c -0.01,0 -0.02,-0.1 -0.03,-0.1"
             style="fill:url(#radialGradient90);fill-opacity:1;fill-rule:nonzero;stroke:none"
             id="path92" /></g></g><g
         id="g94"><g
           id="g96"
           clip-path="url(#clipPath100)"><path
             d="m 11479.6,2487.6 -775,679.8 -77.2,544.5 c 276.9,-95.2 561.5,-174.8 851.9,-237.8 l 14,-170.7 95.1,-448.7 312.8,-244.8 -421.6,-122.3 m 6553.6,1904 -309.3,490.6 c 497.1,383.6 949.1,831 1342.8,1335.1 l -353.8,-954.5 c -30.8,-51.8 -62.2,-103.1 -94.3,-154 l -585.4,-717.2"
             style="fill:url(#radialGradient106);fill-opacity:1;fill-rule:nonzero;stroke:none"
             id="path108" /></g></g><path
         d="m 15615.3,15051.5 c 198.9,0 360.1,-161.2 360.1,-360.1 0,-199 -161.2,-360.2 -360.1,-360.2 -198.9,0 -360.2,161.2 -360.2,360.2 0,198.9 161.3,360.1 360.2,360.1"
         style="fill:#ffffff;fill-opacity:1;fill-rule:nonzero;stroke:none"
         id="path110" /><path
         d="m 13122.2,15795.2 c -181.1,-11.8 -318.4,-168.2 -306.6,-349.3 10.4,-159.5 134,-288.4 293,-305.4 484.1,-58.8 921.4,-118.4 1429.8,-366.1 162,-82 359.7,-17.1 441.6,144.8 82,161.9 17.2,359.7 -144.8,441.6 -2.9,1.5 -5.9,3 -9,4.4 -606.8,295.6 -1148.4,368.2 -1638.4,427.7 -21.7,2.9 -43.7,3.7 -65.6,2.3 v 0"
         style="fill:#ffffff;fill-opacity:1;fill-rule:nonzero;stroke:none"
         id="path112" /><path
         d="m 8347.22,4176.4 c -76.95,0.3 -156.35,-4.8 -238.15,-15.7 l -122.39,-289.2 -150.27,233.6 c -8.74,-2.4 -17.47,-4.8 -26.24,-7.3 C 6594.68,3751.6 5888.49,2916.6 5828.13,1740.8 h 4282.97 c -41.6,810.4 -284.73,1541.8 -719.37,1986.9 l -322.84,-229.3 168.07,369.1 c -246.4,194.7 -543.41,307.2 -889.73,308.9 h -0.01"
         style="fill:#88cca1;fill-opacity:1;fill-rule:nonzero;stroke:none"
         id="path114" /><path
         d="m 6772.64,2669.2 852.06,-928.4 h 110.25 z M 9518.7,2819.4 8106.9,1740.8 h 133.34 z M 8465.69,3400.5 7920.83,1740.8 h 83.25 l 461.61,1659.7 z m -1073.3,267.9 391.51,-1927.6 h 123.07 l -514.58,1927.6 v 0"
         style="fill:#9de8b9;fill-opacity:1;fill-rule:nonzero;stroke:none"
         id="path116" /><path
         d="m 19584.5,4821.1 c 134.2,-0.4 245.8,-345.3 256.3,-792.3 165,228.1 316.7,299.2 372.8,174.8 43.8,-98.2 21.1,-301.1 -60,-536.1 165.2,103.4 297,112.2 355.8,23.8 60.9,-92.3 35,-278.3 -69.2,-497.9 140.2,43.5 247.1,30.9 302,-35.4 117.5,-142.7 -27.6,-497.1 -338.1,-825.7 170.5,20.3 290.3,-14.9 330.1,-97.1 56.5,-118.3 -60.3,-313.3 -296.2,-494.4 h -1707.5 c -235.8,181.2 -352.5,376.2 -295.7,494.4 39.8,82.1 159.6,117.4 330,97.1 -310.5,328.6 -455.6,683 -338.1,825.7 54.9,66.3 161.9,78.9 302.1,35.4 -104.3,219.6 -130.1,405.6 -69.2,497.9 58.7,88.4 190.5,79.6 355.8,-23.8 -81.1,235 -103.9,437.9 -60.1,536.1 56.2,124.3 207.8,53.3 372.8,-174.6 10.5,447.1 122.2,792 256.4,792.1"
         style="fill:#d092f6;fill-opacity:1;fill-rule:nonzero;stroke:none"
         id="path118" /><path
         d="m 19556.3,3936.9 c 25.3,-375.1 69.3,-757.1 97.2,-1135.4 27,-366.9 38.6,-730.1 -1.6,-1060.7 h -199.4 c -4.2,4.9 -8.2,9.9 -12.4,14.8 74.7,311.4 99.4,667.3 107.2,1043.4 7.7,372.8 -1.2,765.6 9,1137.9"
         style="fill:#b979e1;fill-opacity:1;fill-rule:nonzero;stroke:none"
         id="path120" /><path
         d="m 19599.6,2216.5 -6.4,73.9 520.6,330.5 -440,-425 -74.2,20.6 v 0"
         style="fill:#b979e1;fill-opacity:1;fill-rule:nonzero;stroke:none"
         id="path122" /><path
         d="m 19607.4,2482 c -19,-0.6 -37.6,-2.4 -55.8,-5.4 -19.7,40.4 -51.5,78.2 -92.6,113.9 -40.9,35.6 -89.3,67.5 -139.8,96.9 -54.4,31.7 -109.3,59.3 -159.5,85.6 -49.8,26.1 -93.7,50.3 -123.4,73.7 34.1,-16 81.3,-32.1 134.4,-50.2 52.9,-18.1 113.3,-38.7 172.9,-63.3 55.7,-22.9 112.4,-50 163.5,-83.1 51,-32.9 98.6,-73.1 133.9,-123.3 -10.3,-15.9 -21.5,-30.8 -33.6,-44.8"
         style="fill:#b979e1;fill-opacity:1;fill-rule:nonzero;stroke:none"
         id="path124" /><path
         d="m 19567,2968.6 c 57.6,55.5 130.4,107.6 207.3,157.2 77,49.8 160.9,98.8 241.3,147.6 -73.9,-58.6 -150,-116.5 -219.3,-175.1 -69.4,-58.8 -130.4,-116.8 -174.4,-175 l -54.9,45.3"
         style="fill:#b979e1;fill-opacity:1;fill-rule:nonzero;stroke:none"
         id="path126" /><path
         d="m 19596,3138.5 c -9,-2.7 -18,-5.5 -26.8,-8.4 -55.2,65.2 -113.5,110.9 -174.5,151.2 -60,39.8 -124.3,75.2 -184.8,116.7 66.4,-35.3 131.1,-61.2 198.3,-95.4 66.4,-33.8 133.7,-75.1 199.5,-139.3 -3.8,-8.3 -7.7,-16.6 -11.7,-24.8"
         style="fill:#b979e1;fill-opacity:1;fill-rule:nonzero;stroke:none"
         id="path128" /><path
         d="m 6763.17,16847.6 c -67.82,-194 19.83,-396.1 187.25,-510.7 -97.03,-162.3 -308.91,-197.2 -464.4,-285.1 l 125.89,-113.5 333.4,249.5 c 291.67,-50 347.2,30.4 504.45,122.8 19.36,10.2 33.6,27.1 42.61,47.1 l 141.31,73.7 -145.46,44.2 c -21.37,38.9 -64.96,65.1 -132.54,50.8 -39.13,-10.2 -41.51,-38.2 -73.53,-48.5 -7.37,154.6 -103.05,219.4 -120.79,345.3 -53.49,-124.8 -78.88,-260.8 -40.83,-376.7 -73.82,149.3 -272.78,230.2 -357.37,401.1 h 0.01"
         style="fill:#9691e2;fill-opacity:1;fill-rule:nonzero;stroke:none"
         id="path130" /><g
         id="g132"><g
           id="g134"
           clip-path="url(#clipPath138)"><path
             d="m 1972.35,14820.7 h 8033.25 c 172.5,0 312.2,-157.8 312.2,-352.4 v -2219.8 c 0,-194.6 -139.7,-352.3 -312.2,-352.3 H 1972.35 c -172.42,0 -312.19,157.7 -312.19,352.3 v 2219.8 c 0,194.6 139.77,352.4 312.19,352.4"
             style="fill:url(#linearGradient144);fill-opacity:1;fill-rule:nonzero;stroke:none"
             id="path146" /></g></g><path
         d="m 9729.93,14099.9 c 74.29,1 135.1,-58.9 135.1,-133.2 0,-74.3 -60.79,-134.3 -135.1,-133.2 H 8119.78 c -74.3,-1.1 -135.1,58.9 -135.1,133.2 0,74.3 60.79,134.2 135.1,133.2 h 1610.15"
         style="fill:#748de5;fill-opacity:1;fill-rule:nonzero;stroke:none"
         id="path148" /><path
         d="m 7569.24,14099.9 c 74.3,1 135.11,-58.9 135.11,-133.2 0,-74.3 -60.79,-134.3 -135.11,-133.2 H 5921.41 c -74.3,-1.1 -135.1,58.9 -135.1,133.2 0,74.3 60.78,134.2 135.1,133.2 h 1647.83"
         style="fill:#748de5;fill-opacity:1;fill-rule:nonzero;stroke:none"
         id="path150" /><path
         d="m 9729.93,13491.6 c 74.29,1.1 135.1,-58.9 135.1,-133.2 0,-74.3 -60.79,-134.2 -135.1,-133.2 H 5343.38 c -74.29,-1 -135.1,58.9 -135.1,133.2 0,74.3 60.79,134.3 135.1,133.2 h 4386.55"
         style="fill:#748de5;fill-opacity:1;fill-rule:nonzero;stroke:none"
         id="path152" /><path
         d="m 9729.93,12883.4 c 74.29,1 135.1,-58.9 135.1,-133.2 0,-74.3 -60.79,-134.3 -135.1,-133.2 H 8309.18 c -74.29,-1.1 -135.1,58.9 -135.1,133.2 0,74.3 60.79,134.2 135.1,133.2 h 1420.75"
         style="fill:#748de5;fill-opacity:1;fill-rule:nonzero;stroke:none"
         id="path154" /><path
         d="m 7740.89,12883.4 c 74.29,1 135.1,-58.9 135.1,-133.2 0,-74.3 -60.79,-134.3 -135.1,-133.2 H 5117.12 c -74.29,-1.1 -135.1,58.9 -135.1,133.2 0,74.3 60.79,134.2 135.1,133.2 h 2623.77"
         style="fill:#748de5;fill-opacity:1;fill-rule:nonzero;stroke:none"
         id="path156" /><path
         d="m 3126.97,16498.7 c -224.64,-5.7 -379.1,-259.1 -391.49,-566.4 l -21.8,-540.9 c -13.14,-326.3 206.92,-585.9 445.49,-579.9 l 114.02,2.9 c -27.64,17.4 -46.13,46.8 -46.99,80.9 l -30.12,1196.6 c -1.39,55.5 44.56,101.4 103.04,102.9 l 520.28,13.1 c -72.24,180.7 -202.55,303.1 -361.92,299.1 l -330.51,-8.3"
         style="fill:#2d1f1c;fill-opacity:1;fill-rule:nonzero;stroke:none"
         id="path158" /><path
         d="m 5565.4,14681.2 v 0 c 28.15,-58.4 3.67,-128.5 -54.66,-156.6 l -377.68,-182.3 c -58.33,-28.1 -128.45,-3.7 -156.6,54.7 v 0 c -28.15,58.3 -3.67,128.4 54.66,156.6 l 377.68,182.2 c 58.33,28.2 128.45,3.7 156.6,-54.6"
         style="fill:#f6a89a;fill-opacity:1;fill-rule:nonzero;stroke:none"
         id="path160" /><path
         d="m 5524.26,14466.8 v 0 c 130.75,-163.8 103.94,-402.6 -59.9,-533.4 l -882.95,-704.7 c -163.83,-130.7 -402.65,-103.9 -533.41,59.9 -130.75,163.9 -103.93,402.7 59.9,533.4 l 882.95,704.7 c 163.84,130.8 402.65,103.9 533.41,-59.9"
         style="fill:#f6a89a;fill-opacity:1;fill-rule:nonzero;stroke:none"
         id="path162" /><path
         d="m 5959.52,14379.4 14.14,-298.2 c 4.92,-103.6 -75.14,-191.7 -178.82,-196.6 l -545.17,-25.8 c -103.68,-4.9 -191.7,75.1 -196.62,178.8 l -14.14,298.2 c -4.91,103.6 75.14,191.7 178.82,196.6 l 545.17,25.9 c 103.68,4.9 191.71,-75.2 196.62,-178.9"
         style="fill:#f6a89a;fill-opacity:1;fill-rule:nonzero;stroke:none"
         id="path164" /><path
         d="m 5506.71,14037.9 1.69,-32.4 461.17,27.6 c 2.25,10.7 3.65,21.6 4.01,32.8 l -466.88,-28 z m -2.64,169.3 2.64,-32.3 460.72,37.7 -1.54,32.5 -461.82,-37.9 z m -19,187.6 3.13,-32.2 468.12,42.6 c -2.03,10.9 -4.88,21.6 -8.7,31.8 l -462.56,-42.1 0.01,-0.1"
         style="fill:#d07d6e;fill-opacity:1;fill-rule:nonzero;stroke:none"
         id="path166" /><path
         d="m 5342.57,14423.2 c 1.05,-45.6 -0.88,-80.1 -16.04,-113.5 -15.17,-33.4 -44.35,-67.4 -101.81,-109.5 l -26.13,-19.1 30.1,-11.9 c 87.05,-34.6 136.97,-103.3 167.56,-196.2 l 34,11.2 c -29.65,90.1 -81.64,162.8 -164.1,204.8 45.71,36.7 77.02,70.8 92.95,105.9 18.54,40.8 20.32,82.1 19.24,129.1 l -35.75,-0.8 h -0.02"
         style="fill:#d07d6e;fill-opacity:1;fill-rule:nonzero;stroke:none"
         id="path168" /><path
         d="m 4562.2,13243.7 v 0 c -181.15,-105.5 -396.91,-72.7 -481.91,73.3 l -719.55,1235.8 c -85,146 -7.06,349.8 174.08,455.3 v 0 c 181.15,105.5 396.91,72.6 481.91,-73.4 L 4736.28,13699 c 85.01,-146 7.07,-349.9 -174.08,-455.3"
         style="fill:#f6a89a;fill-opacity:1;fill-rule:nonzero;stroke:none"
         id="path170" /><path
         d="m 3377.4,14856.2 c -59.61,-98.3 -69.95,-211.9 -16.66,-303.4 l 338.3,-581 635.93,416.4 -318.25,546.5 c -85.26,146.5 -300.18,179.2 -481.89,73.4 -68.14,-39.7 -121.66,-93 -157.43,-151.9"
         style="fill:#fa902c;fill-opacity:1;fill-rule:nonzero;stroke:none"
         id="path172" /><path
         d="m 3314.04,13389.8 c -554.78,0 -1004.54,-477 -1004.54,-888.3 0,-227.4 0.07,-427.9 2.31,-605.3 h 2001.75 c 4.07,178.3 5,378.6 5,605.3 0,411.3 -449.73,888.3 -1004.52,888.3"
         style="fill:#3d49e0;fill-opacity:1;fill-rule:nonzero;stroke:none"
         id="path174" /><path
         d="m 3265.13,15155.4 h 97.85 c 411.04,0 744.24,-342.5 744.24,-765.1 v -1449.7 c 0,-422.6 -333.2,-765.1 -744.24,-765.1 h -97.85 c -411.04,0 -744.24,342.5 -744.24,765.1 v 1449.7 c 0,422.6 333.2,765.1 744.24,765.1"
         style="fill:#fa902c;fill-opacity:1;fill-rule:nonzero;stroke:none"
         id="path176" /><path
         d="m 2520.88,13276.5 -14.75,-328.8 c -19.33,-431.3 338.09,-779.3 758.07,-779.3 h 99.68 c 419.97,0 777.38,348 758.05,779.3 l -14.73,328.8 H 2520.88"
         style="fill:#3d49e0;fill-opacity:1;fill-rule:nonzero;stroke:none"
         id="path178" /><path
         d="m 3265.1,15155.4 c -155.1,0 -298.81,-48.3 -417.77,-131.1 57.1,-173.8 248.41,-294.5 466.91,-294.6 218.35,0.2 409.46,120.9 466.52,294.6 -118.97,82.8 -262.67,131.1 -417.78,131.1 h -97.87 -0.01"
         style="fill:#f6a89a;fill-opacity:1;fill-rule:nonzero;stroke:none"
         id="path180" /><path
         d="m 3238.37,15700.4 h 151.4 c 68.27,0 123.61,-55.4 123.61,-123.6 v -506.9 c 0,-68.3 -55.34,-123.7 -123.61,-123.7 h -151.4 c -68.27,0 -123.62,55.4 -123.62,123.7 v 506.9 c 0,68.2 55.35,123.6 123.62,123.6"
         style="fill:#ea9687;fill-opacity:1;fill-rule:nonzero;stroke:none"
         id="path182" /><path
         d="m 2512.23,13084.1 -2,-44.7 h 1607.6 l -2,44.7 h -1603.6"
         style="fill:#9097ed;fill-opacity:1;fill-rule:nonzero;stroke:none"
         id="path184" /><path
         d="m 1890.92,13173.3 v 0 c -184.76,99 -269.86,300 -190.08,448.9 l 675.4,1260.4 c 79.79,148.9 294.25,189.4 479.01,90.3 v 0 c 184.77,-99 269.87,-299.9 190.08,-448.8 l -675.4,-1260.5 c -79.78,-148.9 -294.24,-189.3 -479.01,-90.3"
         style="fill:#f6a89a;fill-opacity:1;fill-rule:nonzero;stroke:none"
         id="path186" /><path
         d="m 2643.35,15027.4 c -114.88,-0.7 -217.09,-51.5 -267.11,-144.8 l -317.53,-592.6 687.89,-323.4 298.72,557.5 c 80.03,149.3 -4.74,349.5 -190.07,448.8 -69.51,37.3 -142.98,54.9 -211.9,54.5"
         style="fill:#fa902c;fill-opacity:1;fill-rule:nonzero;stroke:none"
         id="path188" /><path
         d="m 1956.28,11695.3 v 0 c -64.66,3.7 -114.1,59.1 -110.41,123.8 l 23.87,418.6 c 3.69,64.7 59.1,114.1 123.77,110.5 64.66,-3.7 114.1,-59.1 110.41,-123.8 l -23.87,-418.7 c -3.69,-64.7 -59.1,-114.1 -123.77,-110.4"
         style="fill:#ea9687;fill-opacity:1;fill-rule:nonzero;stroke:none"
         id="path190" /><path
         d="m 1662.09,11963.1 v 0 c -203.14,51.7 -325.9,258.3 -274.2,461.5 l 278.63,1094.8 c 51.7,203.1 258.3,325.9 461.44,274.2 203.14,-51.7 325.9,-258.3 274.2,-461.5 l -278.63,-1094.7 c -51.7,-203.2 -258.3,-326 -461.44,-274.3"
         style="fill:#f6a89a;fill-opacity:1;fill-rule:nonzero;stroke:none"
         id="path192" /><path
         d="m 1670.5,11518.4 -289.3,73.6 c -100.59,25.6 -161.38,127.9 -135.78,228.5 l 134.62,528.9 c 25.6,100.6 127.9,161.4 228.49,135.8 l 289.3,-73.6 c 100.59,-25.6 161.38,-127.9 135.78,-228.5 l -134.62,-528.9 c -25.6,-100.6 -127.9,-161.4 -228.49,-135.8"
         style="fill:#f6a89a;fill-opacity:1;fill-rule:nonzero;stroke:none"
         id="path194" /><path
         d="m 1786.4,12010.1 -126.5,-489 10.6,-2.7 c 7.07,-1.8 14.13,-3.1 21.18,-4 l 126.18,487.7 v 0 l -31.46,8 z m -182.89,45.8 -130.81,-487.1 31.48,-8.1 130.66,486.8 z m -160.1,55.5 -139.7,-478.6 c 8.59,-7.5 17.88,-14.3 27.89,-20.2 l 142.87,489.5 -31.06,9.3 v 0"
         style="fill:#d07d6e;fill-opacity:1;fill-rule:nonzero;stroke:none"
         id="path196" /><path
         d="m 3290.5,16445.6 126.22,3.2 c 231.15,5.8 421.92,-175.6 427.74,-406.7 l 10.35,-411.4 c 5.82,-231.1 -61.59,-436.8 -192.75,-422.3 l -203.73,22.5 c -229.82,25.5 -508.32,146.5 -532.11,376.5 l -42.45,410.5 c -23.79,230 175.59,421.9 406.73,427.7"
         style="fill:#f6a89a;fill-opacity:1;fill-rule:nonzero;stroke:none"
         id="path198" /><path
         d="m 3848.93,15845.6 121.22,-236.4 -163.67,-23.8 z"
         style="fill:#f6a89a;fill-opacity:1;fill-rule:nonzero;stroke:none"
         id="path200" /><path
         d="m 3461.27,16446.6 265.08,6.7 c 73.49,1.8 139.18,-54.7 146.71,-126.3 l 17.51,-166.3 c 7.54,-71.6 -45.93,-131.1 -119.42,-133 l -265.08,-6.6 c -73.49,-1.9 -139.18,54.6 -146.72,126.2 l -17.51,166.4 c -7.53,71.5 45.94,131.1 119.43,132.9"
         style="fill:#2d1f1c;fill-opacity:1;fill-rule:nonzero;stroke:none"
         id="path202" /><path
         d="m 2936.95,15964.1 55,1.3 c 58.3,1.5 106.69,-42.1 108.08,-97.5 l 13.6,-540.5 c 1.39,-55.3 -44.74,-101.4 -103.04,-102.8 l -55,-1.4 c -58.3,-1.5 -106.69,42.2 -108.08,97.5 l -13.6,540.5 c -1.4,55.4 44.73,101.4 103.04,102.9"
         style="fill:#2d1f1c;fill-opacity:1;fill-rule:nonzero;stroke:none"
         id="path204" /><path
         d="m 3100.05,15883.7 c -64.31,-1.7 -110.21,-44 -102.87,-94.9 l 14.41,-100.3 c 7.32,-50.9 64.99,-90.6 129.3,-89 l 60.01,1.5 -5.66,225.2 c -0.48,21.1 -34.06,59 -54.68,58.5 l -40.51,-1"
         style="fill:#ea9687;fill-opacity:1;fill-rule:nonzero;stroke:none"
         id="path206" /><path
         d="m 3135.44,16460 250.57,6.3 c 141.98,3.6 241.25,-109.1 221.7,-251.6 l -8.41,-61.4 c -19.55,-142.6 -150.5,-261 -292.49,-264.6 l -250.57,-6.3 c -141.98,-3.6 -241.25,109.1 -221.7,251.7 l 8.41,61.3 c 19.55,142.6 150.5,261.1 292.49,264.6"
         style="fill:#2d1f1c;fill-opacity:1;fill-rule:nonzero;stroke:none"
         id="path208" /><path
         d="m 3237.61,16003.6 v 0 c 25.87,0.6 47.3,-17 47.86,-39.3 l 5.03,-200 c 0.56,-22.4 -19.95,-41.1 -45.82,-41.7 -25.86,-0.7 -47.29,16.9 -47.85,39.3 l -5.04,200 c -0.56,22.4 19.95,41 45.82,41.7"
         style="fill:#2d1f1c;fill-opacity:1;fill-rule:nonzero;stroke:none"
         id="path210" /><path
         d="m 10190.8,12296.2 c 168.7,0 305.4,-136.7 305.4,-305.4 0,-168.6 -136.7,-305.3 -305.4,-305.3 -168.6,0 -305.34,136.7 -305.34,305.3 0,168.7 136.74,305.4 305.34,305.4"
         style="fill:#fa902c;fill-opacity:1;fill-rule:nonzero;stroke:none"
         id="path212" /><path
         d="m 10190.8,12163.1 c 95.1,0 172.2,-77.2 172.2,-172.3 0,-95.1 -77.1,-172.2 -172.2,-172.2 -95.1,0 -172.2,77.1 -172.2,172.2 0,95.1 77.1,172.3 172.2,172.3"
         style="fill:#ecf7ff;fill-opacity:1;fill-rule:nonzero;stroke:none"
         id="path214" /><g
         id="g216"><g
           id="g218"
           clip-path="url(#clipPath222)"><path
             d="m 15568.7,12851.5 h 7730.8 c 220.9,0 400,-179.1 400,-400.1 v -2199.3 c 0,-221 -179.1,-400.07 -400,-400.07 h -7730.8 c -221,0 -400.1,179.07 -400.1,400.07 v 2199.3 c 0,221 179.1,400.1 400.1,400.1"
             style="fill:url(#linearGradient228);fill-opacity:1;fill-rule:nonzero;stroke:none"
             id="path230" /></g></g><path
         d="m 15956.8,12112.2 c -75.5,1.1 -137.5,-59.2 -138.6,-134.7 -1,-75.4 59.3,-137.4 134.7,-138.5 1.3,0 2.6,0 3.9,0 h 2076.4 c 75.5,-1.1 137.5,59.2 138.6,134.7 1,75.4 -59.3,137.4 -134.7,138.5 -1.3,0 -2.6,0 -3.9,0 h -2076.4"
         style="fill:#748de5;fill-opacity:1;fill-rule:nonzero;stroke:none"
         id="path232" /><path
         d="m 18597.9,12112.2 c -76.2,1.1 -138.6,-60.4 -138.6,-136.6 0,-76.2 62.3,-137.7 138.6,-136.6 h 64 c 76.2,-1.1 138.5,60.4 138.5,136.6 0,76.2 -62.3,137.7 -138.5,136.6 h -64"
         style="fill:#748de5;fill-opacity:1;fill-rule:nonzero;stroke:none"
         id="path234" /><path
         d="m 15956.8,11488.4 c -76.2,1 -138.6,-60.4 -138.6,-136.6 0,-76.2 62.4,-137.7 138.6,-136.6 h 4498.9 c 76.2,-1.1 138.6,60.4 138.6,136.6 0,76.2 -62.4,137.6 -138.6,136.6 h -4498.9"
         style="fill:#748de5;fill-opacity:1;fill-rule:nonzero;stroke:none"
         id="path236" /><path
         d="m 15956.8,10864.5 c -76.2,1.1 -138.6,-60.4 -138.6,-136.6 0,-76.2 62.4,-137.7 138.6,-136.6 h 1457.1 c 76.2,-1.1 138.6,60.4 138.6,136.6 0,76.2 -62.4,137.7 -138.6,136.6 h -1457.1"
         style="fill:#748de5;fill-opacity:1;fill-rule:nonzero;stroke:none"
         id="path238" /><path
         d="m 17996.8,10864.5 c -76.2,1.1 -138.6,-60.4 -138.6,-136.6 0,-76.2 62.4,-137.7 138.6,-136.6 h 1712.1 c 76.2,-1.1 138.6,60.4 138.6,136.6 0,76.2 -62.3,137.7 -138.6,136.6 h -1712.1"
         style="fill:#748de5;fill-opacity:1;fill-rule:nonzero;stroke:none"
         id="path240" /><path
         d="m 19103,12112.2 c -76.2,1.1 -138.6,-60.4 -138.6,-136.6 0,-76.2 62.4,-137.7 138.6,-136.6 h 64 c 76.2,-1.1 138.6,60.4 138.6,136.6 0,76.2 -62.4,137.7 -138.6,136.6 h -64"
         style="fill:#748de5;fill-opacity:1;fill-rule:nonzero;stroke:none"
         id="path242" /><path
         d="m 19608.1,12112.2 c -76.2,1.1 -138.6,-60.4 -138.6,-136.6 0,-76.2 62.4,-137.7 138.6,-136.6 h 64 c 76.2,-1.1 138.6,60.4 138.6,136.6 0,76.2 -62.4,137.7 -138.6,136.6 h -64"
         style="fill:#748de5;fill-opacity:1;fill-rule:nonzero;stroke:none"
         id="path244" /><path
         d="m 15221.4,10255.7 c 168.6,0 305.3,-136.7 305.3,-305.38 0,-168.64 -136.7,-305.35 -305.3,-305.35 -168.7,0 -305.4,136.71 -305.4,305.35 0,168.68 136.7,305.38 305.4,305.38"
         style="fill:#fa902c;fill-opacity:1;fill-rule:nonzero;stroke:none"
         id="path246" /><path
         d="m 15221.4,10122.5 c 95.1,0 172.2,-77.1 172.2,-172.18 0,-95.11 -77.1,-172.22 -172.2,-172.22 -95.1,0 -172.2,77.11 -172.2,172.22 0,95.08 77.1,172.18 172.2,172.18"
         style="fill:#ecf7ff;fill-opacity:1;fill-rule:nonzero;stroke:none"
         id="path248" /><path
         d="m 22477.4,12692.7 h -1014.7 c -204.4,0 -370.2,-165.8 -370.2,-370.2 v -1360.6 c 0,-204.4 165.8,-370.2 370.2,-370.2 h 1014.7 c 204.5,0 370.2,165.8 370.2,370.2 v 1360.6 c 0,204.4 -165.7,370.2 -370.2,370.2"
         style="fill:#2b4549;fill-opacity:1;fill-rule:nonzero;stroke:none"
         id="path250" /><path
         d="m 23658.7,13533.1 v 0 c -125.6,177.8 -343.4,239.9 -486.7,138.7 l -1212.5,-856.3 c -143.2,-101.2 -157.6,-327.3 -32.1,-505 v 0 c 125.6,-177.7 343.4,-239.8 486.7,-138.7 l 1212.5,856.4 c 143.2,101.1 157.6,327.2 32.1,504.9"
         style="fill:#6e4e43;fill-opacity:1;fill-rule:nonzero;stroke:none"
         id="path252" /><path
         d="m 21844.4,12521.9 c -14,118.4 25.3,230.2 115.1,293.6 l 570.1,402.6 420.7,-667.5 -536.2,-378.7 c -143.7,-101.5 -360.7,-39.7 -486.7,138.6 -47.2,66.9 -74.7,140.3 -83,211.4"
         style="fill:#00bcd4;fill-opacity:1;fill-rule:nonzero;stroke:none"
         id="path254" /><path
         d="m 20670.5,10853 v 0 c 211,-53.2 416.8,41.6 459.6,211.6 l 362.8,1439.4 c 42.9,170 -93.4,351 -304.4,404.2 v 0 c -211,53.2 -416.8,-41.6 -459.7,-211.6 L 20366,11257.2 c -42.8,-170.1 93.5,-351 304.5,-404.2"
         style="fill:#6e4e43;fill-opacity:1;fill-rule:nonzero;stroke:none"
         id="path256" /><path
         d="m 21389.1,12801.8 c 87.7,-80.8 130.7,-191.2 103.8,-297.8 l -170.6,-676.7 -753.9,232.6 160.4,636.7 c 43,170.5 248,264.9 459.7,211.6 79.3,-20 148,-57.9 200.6,-106.4"
         style="fill:#00bcd4;fill-opacity:1;fill-rule:nonzero;stroke:none"
         id="path258" /><path
         d="m 20000.2,9764.38 v 0 c 192,-102.33 430.6,-29.61 533,162.43 l 551.4,1034.89 c 102.3,192.1 29.6,430.7 -162.4,533 v 0 c -192.1,102.3 -430.7,29.6 -533,-162.4 l -551.5,-1034.9 c -102.3,-192.1 -29.6,-430.69 162.5,-533.02"
         style="fill:#6e4e43;fill-opacity:1;fill-rule:nonzero;stroke:none"
         id="path260" /><path
         d="m 19587.2,9764.47 v 0 c 52.2,-42.38 128.9,-34.41 171.2,17.79 l 274.4,338.04 c 42.3,52.2 34.4,128.8 -17.8,171.2 -52.2,42.4 -128.9,34.4 -171.3,-17.8 l -274.3,-337.99 c -42.4,-52.2 -34.4,-128.87 17.8,-171.24"
         style="fill:#6e4e43;fill-opacity:1;fill-rule:nonzero;stroke:none"
         id="path262" /><path
         d="m 19682.8,9428.96 273.5,-145.72 c 95.1,-50.67 213.3,-14.66 263.9,80.43 l 266.5,500 c 50.6,95.08 14.6,213.23 -80.5,263.93 l -273.5,145.7 c -95,50.7 -213.2,14.7 -263.9,-80.4 l -266.4,-500.03 c -50.7,-95.08 -14.6,-213.24 80.4,-263.91"
         style="fill:#6e4e43;fill-opacity:1;fill-rule:nonzero;stroke:none"
         id="path264" /><path
         d="m 20204.5,9702.04 29.6,-15.98 -230.8,-420.38 c -11,2.62 -21.9,6.16 -32.5,10.79 z m -157.8,77.72 29.2,-16.83 -240,-415.5 -29.8,15.87 240.6,416.46 z m -167.6,101.16 28.9,-17.28 -247.9,-420.28 c -9.4,6.79 -18.1,14.2 -25.9,22.31 l 244.9,415.25"
         style="fill:#492e25;fill-opacity:1;fill-rule:nonzero;stroke:none"
         id="path266" /><path
         d="m 19915.9,10027.2 c 42.3,-21.2 75.5,-34.74 113.6,-35.35 38,-0.62 82.9,11.65 147.9,46.95 l 29.5,16 -2.2,-33.6 c -6.2,-96.98 36.1,-174.33 109.7,-244.31 l -25.6,-26.93 c -71.4,67.83 -116.5,148.92 -119.3,244.95 -54.8,-26.6 -100.6,-40.83 -140.6,-40.18 -46.6,0.74 -86.1,17.41 -129.7,39.31 l 16.7,33.16 v 0"
         style="fill:#492e25;fill-opacity:1;fill-rule:nonzero;stroke:none"
         id="path268" /><path
         d="m 21616.2,11223.2 c 575.9,0 1042.8,-495.2 1042.8,-922.1 0,-154.8 -2.2,-303.98 -6.2,-447.91 h -2071.7 c -5,145.15 -7.6,294.51 -7.6,447.91 0,426.9 466.8,922.1 1042.7,922.1 v 0"
         style="fill:#607d8b;fill-opacity:1;fill-rule:nonzero;stroke:none"
         id="path270" /><path
         d="m 21667,13056 h -101.6 c -426.6,0 -772.5,-355.6 -772.5,-794.3 v -1504.8 c 0,-438.7 345.9,-794.27 772.5,-794.27 h 101.6 c 426.7,0 772.6,355.57 772.6,794.27 v 1504.8 c 0,438.7 -345.9,794.3 -772.6,794.3"
         style="fill:#00bcd4;fill-opacity:1;fill-rule:nonzero;stroke:none"
         id="path272" /><path
         d="m 22439.6,11105.6 15.3,-341.3 c 20,-447.8 -351,-809.04 -786.9,-809.04 h -103.5 c -436,0 -807,361.24 -786.9,809.04 l 15.3,341.3 h 1646.7"
         style="fill:#607d8b;fill-opacity:1;fill-rule:nonzero;stroke:none"
         id="path274" /><path
         d="m 21667,13056 c 161,0 310.2,-50.2 433.7,-136.1 -59.3,-180.5 -257.9,-305.8 -484.7,-305.9 -226.6,0.3 -425,125.6 -484.2,305.9 123.5,85.9 272.6,136.1 433.7,136.1 h 101.5 v 0"
         style="fill:#6e4e43;fill-opacity:1;fill-rule:nonzero;stroke:none"
         id="path276" /><path
         d="m 21694.8,13621.7 h -157.2 c -70.8,0 -128.3,-57.5 -128.3,-128.4 v -526.2 c 0,-70.8 57.5,-128.3 128.3,-128.3 h 157.2 c 70.9,0 128.3,57.5 128.3,128.3 v 526.2 c 0,70.9 -57.4,128.4 -128.3,128.4"
         style="fill:#5f4238;fill-opacity:1;fill-rule:nonzero;stroke:none"
         id="path278" /><path
         d="m 21969.6,14023 v 0.1 c 93.9,196.2 329.2,279.2 525.5,185.2 l 1057.7,-506.3 c 196.3,-93.9 279.2,-329.2 185.3,-525.4 v 0 c -94,-196.3 -329.2,-279.2 -525.5,-185.3 l -1057.7,506.3 c -196.3,93.9 -279.3,329.2 -185.3,525.4"
         style="fill:#6e4e43;fill-opacity:1;fill-rule:nonzero;stroke:none"
         id="path280" /><path
         d="m 21637.1,13778.1 v 0 c 16.9,65 83.4,104.1 148.4,87.2 l 421.4,-109.5 c 65.1,-16.9 104.1,-83.3 87.2,-148.4 -16.9,-65.1 -83.4,-104.1 -148.4,-87.2 l -421.4,109.4 c -65.1,16.9 -104.1,83.4 -87.2,148.5"
         style="fill:#6e4e43;fill-opacity:1;fill-rule:nonzero;stroke:none"
         id="path282" /><path
         d="m 21515.2,14104.9 133.8,279.6 c 46.5,97.1 163,138.2 260.2,91.7 l 511,-244.6 c 97.2,-46.5 138.2,-163 91.7,-260.2 l -133.8,-279.5 c -46.5,-97.2 -163,-138.3 -260.2,-91.7 l -511,244.6 c -97.2,46.5 -138.2,163 -91.7,260.1"
         style="fill:#6e4e43;fill-opacity:1;fill-rule:nonzero;stroke:none"
         id="path284" /><path
         d="m 22097.1,14194.4 14.4,30.4 -435.2,201.6 c -7.2,-8.6 -13.9,-17.9 -19.7,-27.9 z m -80.9,-156.1 13.5,30.8 -439.7,192.2 -14.5,-30.4 440.7,-192.6 z m -75,-180.9 13.1,31.1 -448.9,191.4 c -3.5,-11.1 -6.2,-22.2 -7.7,-33.4 l 443.5,-189.1"
         style="fill:#492e25;fill-opacity:1;fill-rule:nonzero;stroke:none"
         id="path286" /><path
         d="m 22057.6,13761.4 c 21.4,42.2 40.2,72.8 70.5,95.9 30.3,23 73.7,39.8 146.9,49.9 l 33.3,4.6 -21.7,25.8 c -62.5,74.3 -74.4,161.7 -56.6,261.7 l -36.6,6.5 c -17.2,-96.9 -5.5,-189 49.2,-268 -59.8,-11 -105.2,-26.7 -137,-51 -37.1,-28.2 -59,-65.1 -81.1,-108.6 l 33.1,-16.8 v 0"
         style="fill:#492e25;fill-opacity:1;fill-rule:nonzero;stroke:none"
         id="path288" /><path
         d="m 21787.8,14772.7 c -162.3,0 -294,-131.7 -294,-294.1 0,-162.3 131.7,-294 294,-294 162.4,0 294.1,131.7 294.1,294 0,162.4 -131.7,294.1 -294.1,294.1"
         style="fill:#2d1f1c;fill-opacity:1;fill-rule:nonzero;stroke:none"
         id="path290" /><path
         d="m 21779.8,14516.2 h -279.7 c -245.1,0 -443.8,-198.7 -443.8,-443.8 v -217.8 c 0,-245 198.7,-443.7 443.8,-443.7 h 279.7 c 245.1,0 443.8,198.7 443.8,443.7 v 217.8 c 0,245.1 -198.7,443.8 -443.8,443.8"
         style="fill:#2d1f1c;fill-opacity:1;fill-rule:nonzero;stroke:none"
         id="path292" /><path
         d="m 21202.6,13822.5 h 58.8 c 58.8,0 110.8,-43.5 116.3,-97.2 l 10.9,-106 c 5.5,-53.6 -37.6,-97.2 -96.3,-97.2 h -58.8 c -58.7,0 -110.8,43.6 -116.3,97.2 l -10.9,106 c -5.5,53.7 37.6,97.2 96.3,97.2"
         style="fill:#6e4e43;fill-opacity:1;fill-rule:nonzero;stroke:none"
         id="path294" /><path
         d="m 21602.4,14421.7 c -246.9,0 -445.8,-219.6 -445.8,-492.4 V 13637 c 0,-272.7 195.6,-492.4 378.5,-492.4 247,0 513.1,219.7 513.1,492.4 v 292.3 c 0,272.8 -198.8,492.4 -445.8,492.4"
         style="fill:#6e4e43;fill-opacity:1;fill-rule:nonzero;stroke:none"
         id="path296" /><path
         d="m 22039,13822.5 h -60.7 c -60.5,0 -114.2,-43.5 -119.9,-97.2 l -11.2,-106 c -5.7,-53.6 38.8,-97.2 99.3,-97.2 h 60.7 c 60.5,0 114.2,43.6 119.9,97.2 l 11.2,106 c 5.7,53.7 -38.8,97.2 -99.3,97.2"
         style="fill:#6e4e43;fill-opacity:1;fill-rule:nonzero;stroke:none"
         id="path298" /><path
         d="M 21751.8,14434.8 H 21312 c -43.1,0 -78,-36.6 -78,-81.8 v -279.2 c 0,-45.1 34.9,-81.7 78,-81.7 h 439.8 c 43.1,0 78,36.6 78,81.7 v 279.2 c 0,45.2 -34.9,81.8 -78,81.8"
         style="fill:#2d1f1c;fill-opacity:1;fill-rule:nonzero;stroke:none"
         id="path300" /><path
         d="m 21983,14315.4 -226.6,92.9 -26.5,-285.8 156.9,-101.7 v -267.5 h 96.2 v 69 l 128.2,-1 -92.2,381.4 -36,112.7"
         style="fill:#2d1f1c;fill-opacity:1;fill-rule:nonzero;stroke:none"
         id="path302" /><path
         d="m 21144.4,14170.8 197,237.5 26.5,-285.8 -157,-101.7 v -267.5 h -66.5 v 417.5"
         style="fill:#2d1f1c;fill-opacity:1;fill-rule:nonzero;stroke:none"
         id="path304" /><path
         d="m 22448.5,10905.8 2.1,-46.4 h -1668.8 l 2.1,46.4 h 1664.6 v 0"
         style="fill:#829fad;fill-opacity:1;fill-rule:nonzero;stroke:none"
         id="path306" /><path
         d="m 22032.6,13063.8 h -87.5 c -49.1,0 -88.9,-39.8 -88.9,-88.9 v -980.7 c 0,-49.1 39.8,-88.9 88.9,-88.9 h 87.5 c 49.1,0 88.9,39.8 88.9,88.9 v 980.7 c 0,49.1 -39.8,88.9 -88.9,88.9"
         style="fill:#2b4549;fill-opacity:1;fill-rule:nonzero;stroke:none"
         id="path308" /><path
         d="m 21927.8,12108 -48.8,-72.7 c -27.4,-40.7 -23,-91.6 9.9,-113.7 l 655.9,-440.4 c 32.8,-22.1 81.6,-6.9 109,33.8 l 48.8,72.7 c 27.3,40.7 22.9,91.7 -9.9,113.7 l -656,440.5 c -32.8,22 -81.6,6.9 -108.9,-33.9"
         style="fill:#2b4549;fill-opacity:1;fill-rule:nonzero;stroke:none"
         id="path310" /><path
         d="m 21166,13063.8 h -87.5 c -49.1,0 -88.9,-39.8 -88.9,-88.9 v -980.7 c 0,-49.1 39.8,-88.9 88.9,-88.9 h 87.5 c 49.1,0 88.9,39.8 88.9,88.9 v 980.7 c 0,49.1 -39.8,88.9 -88.9,88.9"
         style="fill:#2b4549;fill-opacity:1;fill-rule:nonzero;stroke:none"
         id="path312" /><path
         d="m 21230.8,12087.9 v 0 c -40.6,61 -122.9,77.6 -183.9,37 l -316.8,-210.7 c -61,-40.5 -77.6,-122.9 -37,-183.9 v 0 c 40.6,-60.9 122.9,-77.5 183.9,-36.9 l 316.8,210.6 c 61,40.6 77.5,122.9 37,183.9"
         style="fill:#2b4549;fill-opacity:1;fill-rule:nonzero;stroke:none"
         id="path314" /><path
         d="m 21036.1,12103.1 v -87.5 c 0,-49.1 33.9,-88.9 75.9,-88.9 h 837.7 c 42,0 75.9,39.8 75.9,88.9 v 87.5 c 0,49.1 -33.9,88.9 -75.9,88.9 H 21112 c -42,0 -75.9,-39.8 -75.9,-88.9"
         style="fill:#2b4549;fill-opacity:1;fill-rule:nonzero;stroke:none"
         id="path316" /><g
         id="g318"><g
           id="g320"
           clip-path="url(#clipPath324)"><path
             d="M 11687.1,7665 H 3923.5 c -257.99,0 -467.12,-209.1 -467.12,-467.1 V 5192.1 c 0,-258 209.13,-467.1 467.12,-467.1 h 7763.6 c 257.9,0 467.1,209.1 467.1,467.1 v 2005.8 c 0,258 -209.2,467.1 -467.1,467.1"
             style="fill:url(#linearGradient330);fill-opacity:1;fill-rule:nonzero;stroke:none"
             id="path332" /></g></g><path
         d="m 11916.1,7832.1 c 168.6,0 305.4,-136.7 305.4,-305.4 0,-168.6 -136.8,-305.3 -305.4,-305.3 -168.6,0 -305.4,136.7 -305.4,305.3 0,168.7 136.8,305.4 305.4,305.4"
         style="fill:#fa902c;fill-opacity:1;fill-rule:nonzero;stroke:none"
         id="path334" /><path
         d="m 11916.1,7699 c 95.1,0 172.2,-77.1 172.2,-172.3 0,-95.1 -77.1,-172.2 -172.2,-172.2 -95.1,0 -172.2,77.1 -172.2,172.2 0,95.2 77.1,172.3 172.2,172.3"
         style="fill:#ecf7ff;fill-opacity:1;fill-rule:nonzero;stroke:none"
         id="path336" /><path
         d="m 7062.12,8991.14 v 0 c -180.28,130.23 -411.5,118.03 -516.46,-27.25 L 5657.23,7734.1 c -104.96,-145.3 -43.9,-368.7 136.38,-498.9 180.27,-130.2 411.49,-118 516.45,27.3 l 888.43,1229.77 c 104.96,145.29 43.9,368.64 -136.37,498.87"
         style="fill:#6e4e43;fill-opacity:1;fill-rule:nonzero;stroke:none"
         id="path338" /><path
         d="m 5643.21,7412 c 31.63,-65.9 82.57,-127.8 150.39,-176.8 180.84,-130.6 411.17,-118.5 516.45,27.3 l 402.86,557.6 -695.13,413.08 -360.56,-499.08 c -65.79,-91.1 -66.71,-212.2 -14.01,-322.1 v 0"
         style="fill:#4caf50;fill-opacity:1;fill-rule:nonzero;stroke:none"
         id="path340" /><path
         d="m 7155.46,10304.4 h 0.01 c 218.84,-39.6 364.15,-249.1 324.57,-467.92 L 7266.71,8657.1 c -39.59,-218.84 -249.08,-364.16 -467.93,-324.58 v 0 c -218.85,39.59 -364.16,249.09 -324.58,467.93 l 213.34,1179.39 c 39.58,218.86 249.08,364.16 467.92,324.56"
         style="fill:#6e4e43;fill-opacity:1;fill-rule:nonzero;stroke:none"
         id="path342" /><path
         d="m 7113.42,10774.5 311.67,-56.4 c 108.35,-19.6 180.32,-123.4 160.72,-231.7 l -103.07,-569.82 c -19.6,-108.36 -123.35,-180.32 -231.7,-160.71 l -311.67,56.37 c -108.35,19.6 -180.32,123.34 -160.71,231.66 l 103.06,569.8 c 19.6,108.4 123.35,180.4 231.7,160.8"
         style="fill:#6e4e43;fill-opacity:1;fill-rule:nonzero;stroke:none"
         id="path344" /><path
         d="m 6646.47,10474.9 0.01,0.1 c 65.32,21.3 135.58,-14.3 156.94,-79.6 l 138.3,-422.92 c 21.36,-65.32 -14.27,-135.58 -79.59,-156.94 h -0.01 c -65.32,-21.36 -135.57,14.27 -156.93,79.59 l -138.3,422.87 c -21.36,65.3 14.27,135.6 79.58,156.9"
         style="fill:#6e4e43;fill-opacity:1;fill-rule:nonzero;stroke:none"
         id="path346" /><path
         d="m 6924.39,10131.9 c 43.23,-7.6 75.45,-15.9 104.13,-36.5 28.66,-20.6 55.26,-54.5 84.13,-116.69 l 13.11,-28.27 16.95,26.15 c 48.94,75.71 123.19,109.81 216.65,121.31 l -4.16,34.1 c -90.59,-11 -169.03,-46.4 -224.2,-116.3 -26.03,50.1 -52.28,86 -82.42,107.6 -35.04,25.2 -73.68,34.7 -118.26,42.5 l -5.93,-33.9 v 0"
         style="fill:#492e25;fill-opacity:1;fill-rule:nonzero;stroke:none"
         id="path348" /><path
         d="m 7351.44,10259.1 33.89,-6 80.06,453.2 c -10.55,4.3 -21.68,7.6 -33.18,10.1 l -80.78,-457.3 z m -175.75,37.6 34.08,-4.9 66.28,453.2 -33.9,6.2 -66.45,-454.5 z m -196.6,34.1 34.12,-4.5 59.61,451.3 c -12,-0.2 -23.78,-1.7 -35.28,-4.1 l -58.45,-442.7"
         style="fill:#492e25;fill-opacity:1;fill-rule:nonzero;stroke:none"
         id="path350" /><path
         d="m 5328.07,7896.4 c -17.49,-0.2 -35.11,-0.8 -52.8,-1.8 -565.86,-31.1 -1000.45,-437.6 -974.4,-911.5 l 101.16,-1841.3 c 8.5,-154.6 65.19,-296.5 157.03,-416.8 h 1706.97 c 122.2,150.7 189.55,334.2 178.83,529.1 l -101.17,1841.2 c -25.23,459.1 -473.2,808 -1015.63,801.1 h 0.01"
         style="fill:#4caf50;fill-opacity:1;fill-rule:nonzero;stroke:none"
         id="path352" /><path
         d="m 3755.51,5737.2 v 0 c -201.49,94.2 -303.34,302.1 -227.49,464.5 l 642.12,1374.6 c 75.85,162.3 300.69,217.7 502.18,123.6 v 0 c 201.49,-94.2 303.34,-302.1 227.49,-464.5 L 4257.69,5860.8 C 4181.84,5698.4 3957,5643.1 3755.51,5737.2"
         style="fill:#6e4e43;fill-opacity:1;fill-rule:nonzero;stroke:none"
         id="path354" /><path
         d="m 4444.67,7745.2 c -121.65,-7.4 -226.98,-67.1 -274.54,-168.9 l -301.87,-646.3 747.54,-302.6 284,608 c 76.09,162.9 -25.37,370 -227.49,464.4 -75.79,35.5 -154.65,49.8 -227.64,45.4"
         style="fill:#4caf50;fill-opacity:1;fill-rule:nonzero;stroke:none"
         id="path356" /><path
         d="m 3910.78,4175.3 v 0 c -68.72,0.2 -124.31,56 -124.17,124.7 l 0.92,444.9 c 0.14,68.8 55.96,124.3 124.68,124.2 68.72,-0.1 124.31,-56 124.17,-124.7 l -0.92,-444.9 c -0.14,-68.7 -55.96,-124.3 -124.68,-124.2"
         style="fill:#5b3d33;fill-opacity:1;fill-rule:nonzero;stroke:none"
         id="path358" /><path
         d="m 3583.54,4441.9 v 0 c -218.21,43 -360.29,254.7 -317.34,472.9 l 231.45,1176 c 42.94,218.2 254.65,360.3 472.86,317.3 218.2,-42.9 360.28,-254.6 317.34,-472.8 L 4056.4,4759.3 C 4013.45,4541.1 3801.74,4399 3583.54,4441.9"
         style="fill:#6e4e43;fill-opacity:1;fill-rule:nonzero;stroke:none"
         id="path360" /><path
         d="m 3618.33,3971.3 -310.76,61.2 c -108.04,21.2 -178.4,126.1 -157.13,234.1 l 111.82,568.2 c 21.26,108 126.09,178.4 234.14,157.1 l 310.76,-61.2 c 108.05,-21.2 178.4,-126.1 157.14,-234.1 l -111.82,-568.2 c -21.27,-108 -126.1,-178.4 -234.15,-157.1"
         style="fill:#6e4e43;fill-opacity:1;fill-rule:nonzero;stroke:none"
         id="path362" /><path
         d="m 3712.49,4498.9 -105.55,-525.3 11.39,-2.3 c 7.59,-1.5 15.15,-2.4 22.67,-3 l 105.28,524 v 0 l -33.79,6.6 z m -196.42,37.9 -110.21,-523.7 33.81,-6.6 110.09,523.2 z m -172.83,49.5 -120.13,-515.1 c 9.54,-7.5 19.78,-14.1 30.72,-19.8 l 122.86,526.8 -33.44,8.1 h -0.01"
         style="fill:#492e25;fill-opacity:1;fill-rule:nonzero;stroke:none"
         id="path364" /><path
         d="m 5275.28,7894.6 c -171.39,-9.4 -330.63,-53.4 -468.78,-123.2 71.12,-187.4 314.67,-322.9 556.48,-309.6 249.19,13.8 406.56,180.4 354.3,375.1 -135.37,45.1 -285.22,66.4 -442,57.7"
         style="fill:#6e4e43;fill-opacity:1;fill-rule:nonzero;stroke:none"
         id="path366" /><path
         d="M 6429.08,5541.7 4386.27,5429.4 4418.6,4725 h 2047.98 l -37.5,816.7"
         style="fill:#d18b4d;fill-opacity:1;fill-rule:nonzero;stroke:none"
         id="path368" /><path
         d="m 4401.55,5151.1 2.37,-43 2042.82,112.3 -2.36,42.9 -2042.83,-112.2"
         style="fill:#eaad78;fill-opacity:1;fill-rule:nonzero;stroke:none"
         id="path370" /><path
         d="m 4733.38,5452.6 55.84,3 17.2,-313.1 -55.83,-3 -17.21,313.1"
         style="fill:#eaad78;fill-opacity:1;fill-rule:nonzero;stroke:none"
         id="path372" /><path
         d="m 4880.15,5460.6 55.83,3.1 17.2,-313.1 -55.83,-3.1 -17.2,313.1"
         style="fill:#eaad78;fill-opacity:1;fill-rule:nonzero;stroke:none"
         id="path374" /><path
         d="m 5118.97,8464.2 107.19,16.31 c 112.36,17.09 217.31,-60.14 234.4,-172.5 l 67.65,-444.61 c 17.09,-112.3 -60.14,-217.3 -172.5,-234.4 l -107.18,-16.3 c -112.36,-17.1 -217.31,60.2 -234.41,172.5 l -67.64,444.59 c -17.1,112.36 60.13,217.31 172.49,234.41"
         style="fill:#5b3d33;fill-opacity:1;fill-rule:nonzero;stroke:none"
         id="path376" /><path
         d="m 4838.49,8805.95 208.35,43.99 c 141.59,29.89 291.51,-53.58 307.47,-191.76 l 26.41,-229.07 c 15.01,-130.13 -58.47,-254.04 -191.8,-282.2 l -196.16,-41.41 c -133.33,-28.16 -250.63,55.48 -289.52,180.57 l -68.44,220.2 c -41.26,132.84 62.12,269.79 203.69,299.68"
         style="fill:#000000;fill-opacity:1;fill-rule:nonzero;stroke:none"
         id="path378" /><path
         d="m 5634.54,8715.41 -55.03,-11.62 c -54.92,-11.6 -93.79,-68.34 -86.84,-126.75 l 13.71,-115.29 c 6.94,-58.41 57.08,-96.36 112,-84.76 l 55.03,11.62 c 54.92,11.6 93.79,68.34 86.84,126.75 l -13.71,115.28 c -6.95,58.41 -57.08,96.36 -112,84.77"
         style="fill:#6e4e43;fill-opacity:1;fill-rule:nonzero;stroke:none"
         id="path380" /><path
         d="m 5025.39,9160.85 122.64,25.89 c 224.6,47.43 443.62,-95.21 491.03,-319.83 l 84.4,-399.68 c 47.43,-224.61 -27.17,-429.25 -155.35,-456.31 l -153.83,-32.52 c -224.6,-47.4 -528.38,78.07 -593.13,298.32 l -115.59,393.1 c -64.76,220.24 95.23,443.61 319.83,491.03"
         style="fill:#6e4e43;fill-opacity:1;fill-rule:nonzero;stroke:none"
         id="path382" /><path
         d="m 4900.09,9258.13 c -216.72,-45.76 -429.62,-272.54 -358.51,-479.39 l 115.03,-334.68 221.38,46.75 -49.9,347.27 c 0,0 339.15,9.76 486.74,40.92 147.59,31.17 266.01,118.02 266.01,118.02 l 84.3,-340.01 56.72,11.98 -30.08,352.6 c -18.6,217.94 -256.07,349.64 -472.81,303.88 l -318.88,-67.34"
         style="fill:#000000;fill-opacity:1;fill-rule:nonzero;stroke:none"
         id="path384" /><path
         d="m 4749.7,8528.57 55.03,11.62 c 54.92,11.6 113.41,-24.59 130.67,-80.82 l 34.07,-110.98 c 17.26,-56.23 -13.26,-111.21 -68.18,-122.81 l -55.03,-11.62 c -54.92,-11.59 -113.41,24.59 -130.67,80.82 l -34.06,110.99 c -17.26,56.23 13.25,111.21 68.17,122.8"
         style="fill:#6e4e43;fill-opacity:1;fill-rule:nonzero;stroke:none"
         id="path386" /><path
         d="m 7132.59,6936.5 c -69.62,1 -126.6,-58.9 -126.6,-133.2 0,-74.3 56.96,-134.3 126.6,-133.2 h 2577.19 c 69.62,-1.1 126.6,58.9 126.6,133.2 0,74.3 -56.96,134.2 -126.6,133.2 H 7132.59"
         style="fill:#748de5;fill-opacity:1;fill-rule:nonzero;stroke:none"
         id="path388" /><path
         d="m 10225.7,6936.5 c -69.6,1 -126.6,-58.9 -126.6,-133.2 0,-74.3 57,-134.3 126.6,-133.2 h 1169.4 c 69.6,-1.1 126.6,58.9 126.6,133.2 0,74.3 -57,134.2 -126.6,133.2 h -1169.4"
         style="fill:#748de5;fill-opacity:1;fill-rule:nonzero;stroke:none"
         id="path390" /><path
         d="m 11395.1,6328.2 c 69.6,1 126.6,-58.9 126.6,-133.2 0,-74.3 -57,-134.2 -126.6,-133.2 H 7171.92 c -69.62,-1 -126.6,58.9 -126.6,133.2 0,74.3 56.96,134.2 126.6,133.2 h 4223.18"
         style="fill:#748de5;fill-opacity:1;fill-rule:nonzero;stroke:none"
         id="path392" /><path
         d="m 10083.1,5719.9 c 69.6,1.1 126.6,-58.8 126.6,-133.2 0,-74.3 -57,-134.2 -126.6,-133.1 h -956.55 c -69.63,-1.1 -126.61,58.8 -126.61,133.1 0,74.4 56.96,134.3 126.61,133.2 h 956.55"
         style="fill:#748de5;fill-opacity:1;fill-rule:nonzero;stroke:none"
         id="path394" /><path
         d="m 8593.99,5719.9 c 69.62,1.1 126.6,-58.8 126.6,-133.2 0,-74.3 -56.96,-134.2 -126.6,-133.1 H 7259.78 c -69.62,-1.1 -126.6,58.8 -126.6,133.1 0,74.4 56.96,134.3 126.6,133.2 h 1334.21"
         style="fill:#748de5;fill-opacity:1;fill-rule:nonzero;stroke:none"
         id="path396" /><g
         id="g398"><g
           id="g400"
           clip-path="url(#clipPath404)"><path
             d="m 18044.6,7069 h 3623.6 c 324.5,0 587.5,-245.3 587.5,-547.9 V 4676.9 c 0,-302.6 -263,-547.9 -587.5,-547.9 h -3623.6 c -324.5,0 -587.5,245.3 -587.5,547.9 v 1844.2 c 0,302.6 263,547.9 587.5,547.9"
             style="fill:url(#linearGradient410);fill-opacity:1;fill-rule:nonzero;stroke:none"
             id="path412" /></g></g><path
         d="m 17633.6,7145.2 c 168.6,0 305.3,-136.7 305.3,-305.4 0,-168.6 -136.7,-305.3 -305.3,-305.3 -168.7,0 -305.4,136.7 -305.4,305.3 0,168.7 136.7,305.4 305.4,305.4"
         style="fill:#fa902c;fill-opacity:1;fill-rule:nonzero;stroke:none"
         id="path414" /><path
         d="m 17633.6,7012.1 c 95.1,0 172.2,-77.1 172.2,-172.3 0,-95.1 -77.1,-172.2 -172.2,-172.2 -95.2,0 -172.3,77.1 -172.3,172.2 0,95.2 77.1,172.3 172.3,172.3"
         style="fill:#ecf7ff;fill-opacity:1;fill-rule:nonzero;stroke:none"
         id="path416" /><path
         d="m 20726.4,6721 c 619.6,0 1122,-502.3 1122,-1122 0,-619.7 -502.4,-1122 -1122,-1122 -619.7,0 -1122.1,502.3 -1122.1,1122 0,619.7 502.4,1122 1122.1,1122"
         style="fill:#748de5;fill-opacity:1;fill-rule:nonzero;stroke:none"
         id="path418" /><path
         d="m 21403.3,4972.8 c -64.4,0.4 -133,-16 -197.9,-50.8 -167.4,-89.7 -246.9,-267.6 -184.3,-405.3 229.9,62.9 433.8,197.5 582.1,384 -51.2,46.7 -122.4,71.7 -199.9,72.1 v 0"
         style="fill:#d2e1f9;fill-opacity:1;fill-rule:nonzero;stroke:none"
         id="path420" /><path
         d="m 20049.5,4972.8 c -77.9,-0.5 -149.4,-25.7 -200.7,-72.7 148.8,-186.2 353.1,-320.2 583.2,-382.5 61.9,137.6 -17.7,314.9 -184.7,404.4 -64.9,34.7 -133.5,51.2 -197.8,50.8 v 0"
         style="fill:#d2e1f9;fill-opacity:1;fill-rule:nonzero;stroke:none"
         id="path422" /><path
         d="m 20726.4,5081.7 c -307.8,0 -578.4,-128.1 -740.6,-324.3 204.5,-180.4 467.8,-280.1 740.6,-280.4 272.7,0.5 535.8,100.3 740.3,280.8 -162.3,195.9 -432.8,323.8 -740.3,323.8 v 0.1"
         style="fill:#d2e1f9;fill-opacity:1;fill-rule:nonzero;stroke:none"
         id="path424" /><path
         d="m 20726.4,5081.7 c -143.8,0 -279.4,-28.1 -399.7,-77.9 12.2,-160.6 187.5,-286 399.7,-286.1 212.1,0.2 387.2,125.7 399.3,286.3 -120.2,49.7 -255.7,77.7 -399.3,77.7"
         style="fill:#ecf7ff;fill-opacity:1;fill-rule:nonzero;stroke:none"
         id="path426" /><path
         d="m 20678.7,5602.2 h 95.4 c 100,0 181.1,-81 181.1,-181.1 v -395.7 c 0,-100.1 -81.1,-181.1 -181.1,-181.1 h -95.4 c -100.1,0 -181.1,81 -181.1,181.1 v 395.7 c 0,100.1 81,181.1 181.1,181.1"
         style="fill:#ecf7ff;fill-opacity:1;fill-rule:nonzero;stroke:none"
         id="path428" /><path
         d="m 20576.1,6323.7 h 300.6 c 204.3,0 387,-155.9 368.7,-347.6 l -30.3,-317.7 c -17.2,-180.6 -154.8,-327.4 -347.2,-327.4 h -283.1 c -192.3,0 -330,146.8 -347.2,327.4 l -30.3,317.7 c -18.3,191.7 164.5,347.6 368.8,347.6"
         style="fill:#d2e1f9;fill-opacity:1;fill-rule:nonzero;stroke:none"
         id="path430" /><path
         d="m 20714.6,6240.1 h 23.6 c 225.3,0 408,-182.6 408,-408 v -272.8 c 0,-225.3 -182.7,-408 -408,-408 h -23.6 c -225.4,0 -408.1,182.7 -408.1,408 v 272.8 c 0,225.4 182.7,408 408.1,408"
         style="fill:#ecf7ff;fill-opacity:1;fill-rule:nonzero;stroke:none"
         id="path432" /><path
         d="m 20483.9,6366 c 0,0 171.1,41.9 283.9,62.5 299.5,54.5 252.5,-160.6 190.9,-266.6 -112.8,-198.7 -446.5,-305.8 -653.7,-174.4 l -67.4,-3.4 v 130.3 c 0,129.7 112.8,229.5 246.3,251.6 v 0"
         style="fill:#d2e1f9;fill-opacity:1;fill-rule:nonzero;stroke:none"
         id="path434" /><path
         d="m 20283.2,5745.8 h 49.4 c 49.4,0 93.2,-41.8 97.9,-93.3 l 9.1,-101.8 c 4.7,-51.5 -31.6,-93.3 -81,-93.3 h -49.5 c -49.4,0 -93.2,41.8 -97.8,93.3 l -9.2,101.8 c -4.6,51.5 31.7,93.3 81.1,93.3"
         style="fill:#ecf7ff;fill-opacity:1;fill-rule:nonzero;stroke:none"
         id="path436" /><path
         d="m 21169.6,5745.8 h -49.5 c -49.4,0 -93.2,-41.8 -97.8,-93.3 l -9.2,-101.8 c -4.6,-51.5 31.7,-93.3 81.1,-93.3 h 49.4 c 49.4,0 93.2,41.8 97.9,93.3 l 9.1,101.8 c 4.7,51.5 -31.6,93.3 -81,93.3"
         style="fill:#ecf7ff;fill-opacity:1;fill-rule:nonzero;stroke:none"
         id="path438" /><path
         d="m 20946.4,6309.4 h 166.9 c 56.4,0 101.8,-45.4 101.8,-101.8 v -228.2 c 0,-56.5 -20.8,-63.6 -101.8,-63.6 -92.3,0 -265.7,56.8 -268.8,153.6 v 138.2 c 0,56.4 45.5,101.8 101.9,101.8"
         style="fill:#d2e1f9;fill-opacity:1;fill-rule:nonzero;stroke:none"
         id="path440" /><path
         d="m 20726.4,6642.7 c 577.3,0 1043.7,-466.3 1043.7,-1043.7 0,-577.3 -466.4,-1043.7 -1043.7,-1043.7 -577.4,0 -1043.8,466.4 -1043.8,1043.7 0,577.4 466.4,1043.7 1043.8,1043.7 z m 0,156.6 c -662,0 -1200.4,-538.3 -1200.4,-1200.3 0,-662 538.4,-1200.3 1200.4,-1200.3 661.9,0 1200.3,538.3 1200.3,1200.3 0,662 -538.4,1200.3 -1200.3,1200.3"
         style="fill:#ecf7ff;fill-opacity:1;fill-rule:nonzero;stroke:none"
         id="path442" /></g></g></svg>
